<?xml version="1.0" encoding="utf-8" ?>
<svg xmlns="http://www.w3.org/2000/svg" xmlns:xlink="http://www.w3.org/1999/xlink" width="1700" height="1700">
	<path fill="#232E3E" transform="scale(1.57407 1.57407)" d="M363.217 320.057C363.567 316.606 364.087 313.337 365.139 310.023C370.77 292.298 387.85 277.246 403.893 268.901Q408.119 266.706 412.53 264.912Q416.941 263.118 421.498 261.739Q426.056 260.361 430.722 259.41Q435.388 258.459 440.122 257.944C460.224 255.597 481.954 256.218 502.216 256.349L583.801 256.9C594.702 256.935 605.589 257.007 616.485 256.578C634.551 255.866 652.716 254.548 670.797 255.467C681.466 256.01 691.901 257.304 702.101 260.608Q703.32 260.991 704.528 261.405Q705.737 261.818 706.935 262.262Q708.133 262.706 709.319 263.179Q710.506 263.653 711.68 264.156Q712.854 264.659 714.016 265.191Q715.177 265.724 716.325 266.285Q717.472 266.846 718.605 267.436Q719.738 268.026 720.856 268.644Q721.974 269.262 723.077 269.908Q724.179 270.554 725.265 271.227Q726.35 271.9 727.419 272.6Q728.487 273.301 729.538 274.027Q730.588 274.754 731.62 275.507Q732.652 276.26 733.665 277.038Q734.678 277.817 735.671 278.621Q736.664 279.424 737.637 280.252Q738.61 281.081 739.561 281.933Q740.513 282.785 741.443 283.661Q742.373 284.537 743.28 285.436Q744.188 286.335 745.073 287.256Q745.958 288.178 746.819 289.121Q747.681 290.064 748.519 291.029Q749.356 291.993 750.17 292.978Q750.983 293.963 751.771 294.969Q752.559 295.974 753.322 296.999Q754.085 298.023 754.822 299.067Q755.559 300.11 756.27 301.172Q756.98 302.233 757.664 303.313Q758.348 304.392 759.004 305.487Q759.661 306.583 760.29 307.695Q760.919 308.807 761.52 309.935Q762.121 311.062 762.693 312.204C777.484 341.541 787.335 387.141 770.842 417.132C769.066 420.362 766.978 423.491 764.563 426.282C760.81 430.62 755.139 434.816 753.309 440.386C753.795 441.36 753.975 441.852 754.972 442.41C756.856 443.466 759.614 443.841 761.704 444.511C768.217 446.6 773.235 449.605 778.485 453.959C779.222 456.553 779.871 460.375 782.193 462.034C783.845 463.216 785.353 463.259 787.206 462.552C790.405 461.331 793.358 458.478 796.103 456.444C803.32 451.096 811.543 450.181 820.19 449.003C820.197 451.836 820.062 453.837 818.042 455.969C817.221 456.836 816.243 457.566 815.296 458.289C813.177 458.49 811.707 458.74 809.901 459.943L807.446 460.649C800.566 462.587 791.844 468.067 788.265 474.355Q787.72 475.296 787.269 476.285C787.387 478.192 787.158 479.087 788.529 480.499C789.558 480.761 790.316 480.879 791.331 480.548C796.252 478.945 801.738 472.594 804.196 468.149C808.078 464.043 814.807 463.446 820.132 462.622L819.587 461.769C821.092 461.706 822.462 461.683 823.923 461.28C826.135 460.669 833.729 461.805 835.575 463.043C836.146 463.427 836.157 463.511 836.508 463.989C835.937 465.038 835.342 465.089 834.303 465.617C843.41 468.314 850.296 471.377 857.383 477.783Q861.612 478.386 865.809 479.178L868.965 483.147L869.452 482.646C868.281 478.772 868.87 475.715 869.64 471.87C871.711 474.667 875.342 481.824 878.394 482.953C882.617 487.142 884.648 497.454 885.445 503.077C887.946 520.726 885.847 539.357 885.558 557.138C885.265 575.2 886.927 593.697 883.377 611.524C881.436 621.268 877.695 630.419 871.703 638.381C859.108 655.119 840.134 661.834 819.648 659.863C814.053 659.325 808.094 658.321 802.881 656.141C798.432 654.28 786.194 643.801 783.017 644.249C781.68 645.747 781.363 647.22 781.09 649.165C780.375 654.27 780.7 659.717 780.649 664.87C780.565 673.294 780.151 681.523 778.798 689.861Q778.23 693.399 777.419 696.89Q776.609 700.381 775.56 703.808Q774.511 707.235 773.228 710.581Q771.946 713.928 770.436 717.178C758.271 743.448 734.752 762.577 707.829 772.375C696.458 776.513 684.846 778.489 672.808 779.22C654.952 780.304 636.873 779.047 618.995 778.674C595.738 778.189 572.454 778.223 549.192 777.917C513.836 777.453 477.976 780.05 442.797 775.971Q439.068 775.536 435.387 774.795Q431.706 774.055 428.099 773.015Q424.491 771.974 420.982 770.64Q417.472 769.307 414.084 767.689C387.621 755.219 365.704 732.328 355.982 704.563C352.71 695.215 351.385 685.285 350.803 675.433C348.917 643.462 350.728 611.254 350.508 579.244L349.769 508.52C349.572 495.449 348.826 482.277 349.231 469.216C349.353 465.272 349.539 460.367 351.398 456.831C355.714 448.619 367.818 444.593 376.006 441.834L375.939 435.884C363.74 423.874 354.763 410.647 353.092 393.326C351.623 378.098 354.228 363.113 355.825 348.025C356.496 341.685 356.508 335.094 358.279 328.938C359.318 325.326 360.869 322.922 363.217 320.057ZM854.379 625.117C850.147 630.226 838.22 637.238 831.934 639.69C827.541 638.464 823.051 636.824 818.474 636.624C815.95 636.852 813.304 636.598 810.77 636.511C813.422 638.808 816.448 641.298 819.731 642.618C827.601 645.782 839.337 642.06 846.704 638.624C853.284 635.555 858.091 631.383 860.655 624.453C858.524 623.832 856.458 624.594 854.379 625.117ZM864.476 559.944L863.904 560.231C863.865 562.786 863.732 565.359 864.029 567.901C864.97 577.926 864.941 588.545 864.897 598.634C868.824 593.31 866.742 583.663 867.074 577.353L867.123 576.512C867.417 576.95 867.212 576.761 867.796 577.008C868.027 575.313 868.311 573.637 868.615 571.953C869.253 554.932 869.036 537.705 868.646 520.684C867.189 520.656 865.832 520.364 864.534 521.064C863.332 532.173 864.348 548.326 864.476 559.944ZM468.192 501.012C464.959 496.247 461.727 491.076 456.75 487.976L458.859 491.472C459.865 493.127 460.456 494.935 459.992 496.88C459.754 497.878 459.565 497.822 458.818 498.426C455.62 498.375 453.503 496.2 451.383 494.036C450.962 493.606 450.558 493.16 450.152 492.717L446.992 489.178C438.889 488.513 430.78 488.624 422.668 488.233C416.921 487.956 411.213 487.165 405.455 487.187L399.588 485.919C390.78 482.752 379.929 479.386 370.612 478.774C368.098 475.578 362.734 473.757 359.036 472.288C360.92 491.233 360.537 510.945 360.623 529.99C360.659 537.958 360.371 546.063 361.054 554.001C360.508 560.576 360.476 567.072 360.764 573.661Q360.497 603.921 360.56 634.181C360.557 653.115 359.878 672.742 363.518 691.424C367.085 712.221 383.79 735.213 400.534 747.525C413.124 756.783 428.296 762.515 443.675 764.971C469.314 769.067 495.299 767.193 521.1 766.525C537.477 766.101 554.019 766.402 570.415 766.418L640.456 767.055C656.667 767.177 672.779 768.045 688.904 765.583C713.569 761.817 737.946 747.515 752.628 727.264C761.421 715.137 766.873 700.595 769.103 685.831C771.493 670.01 770.54 654.087 770.515 638.171L769.912 553.681Q769.858 530.757 770.555 507.844C770.786 496.965 771.736 485.848 769.999 475.04C767.407 474.411 755.467 479.943 752.046 480.956C746.102 482.642 740.165 484.498 734.071 485.559C727.824 486.719 721.368 487.277 715.182 488.602C703.042 489.697 690.872 490.1 678.695 490.546C676.46 492.808 674.269 495.177 671.874 497.268C668.746 497.957 663.329 497.729 660.3 496.658C645.164 502.014 612.487 498.984 595.457 498.939C569.912 498.872 544.322 498.659 518.781 498.981C501.903 499.194 485.072 501.015 468.192 501.012ZM382.037 396.813C383.019 400.257 384.15 403.394 385.684 406.63C386.833 409.224 387.864 412.213 389.994 414.168L390.944 411.467L391.184 411.323L395.03 412.582L396.329 406.074L396.512 404.71C396.283 401.625 397.776 397.768 396.811 395.006C395.921 390.849 395.062 386.46 394.712 382.226C393.818 371.439 396.464 359.757 403.624 351.414C419.623 332.769 458.045 331.881 480.946 329.277C490.906 328.144 500.891 326.133 510.864 325.352L511.364 325.312C521.06 323.398 533.048 324.222 541.435 329.838C547.591 333.961 551.588 339.884 554.999 346.326C564.202 346.255 572.919 350.367 581.55 344.514C582.443 339.132 587.531 334.06 591.834 330.999C596.591 327.616 602.077 325.414 607.907 324.873C619.947 323.756 632.047 327.435 643.946 328.735C659.431 330.426 675.074 330.949 690.431 333.714C705.149 336.364 719.894 340.837 728.787 353.7C735.703 363.703 736.966 376.158 734.774 387.907C734.251 390.707 733.486 393.461 732.899 396.249C732.535 397.192 732.144 398.039 732.035 399.05C731.792 400.82 731.498 402.6 731.393 404.384L732.063 411.944C732.795 413.973 733.862 415.773 734.927 417.636C739.341 414.581 742.111 410.734 744.548 406.028C752.235 391.181 755.099 378.454 754.46 361.766C754.21 355.243 753.549 348.854 751.542 342.62C750.052 338.17 748.275 332.952 745.605 329.099C736.677 319.978 725.862 311.592 713.613 307.499C687.638 297.783 661.146 299.041 633.943 297.98C625.708 297.658 617.488 296.738 609.254 296.513C583.064 295.796 556.864 296.215 530.672 296.141C510.282 296.084 489.892 295.241 469.493 295.147C440.161 295.933 411.954 301.453 390.823 323.481C384.721 329.841 380.611 337.51 378.447 346.05C376.934 354.122 375.353 365.381 376.741 373.441C378.202 381.323 380.317 388.996 382.037 396.813ZM807.108 540.419L805.216 541.879C803.951 542.166 802.608 542.264 801.727 543.3C801.258 549.13 801.67 554.998 801.417 560.841C800.64 578.729 797.116 606.945 809.856 621.292C813.588 625.495 818.628 627.719 824.226 627.923C832.282 628.217 839.767 626.017 845.563 620.351Q846.139 619.788 846.707 619.218L848.263 617.776L848.698 617.177L851.432 610.559C857.748 595.349 852.942 558.52 853.288 540.837Q853.35 529.975 851.997 519.198C851.44 512.496 849.651 506.506 847.193 500.271C846.52 498.517 845.757 496.517 844.593 495.028C843.496 493.625 842.768 493.369 841.064 493.097C839.469 489.372 836.547 486.965 832.786 485.545C827.385 483.506 820.2 483.147 814.934 485.791C813.894 486.313 813.231 486.872 812.503 487.792C812.37 489.037 812.315 489.48 813.336 490.433C816.37 493.264 822.067 490.904 825.7 492.106C828.891 493.162 830.918 495.511 834.591 494.851C836.864 494.443 838.137 493.88 840.581 494.057L841.671 495.039L841.127 495.544C839.079 495.394 837.072 495.121 835.055 495.621L834.404 496.406C835.072 498.924 836.87 500.556 837.284 503.121C839.349 507.308 840.025 512.283 838.53 516.763C837.029 521.262 833.56 524.945 829.311 526.976C827.889 527.655 826.413 528.247 824.883 528.625C826.205 531.747 826.396 533.925 825.09 537.113C824.806 537.806 824.547 538.125 823.935 538.544C823.864 537.876 823.836 537.301 823.989 536.64C824.403 534.847 825.208 531.262 824.358 529.637C819.728 529.468 813.309 531.699 809.32 533.933C811.568 536.76 813.952 539.526 817.793 539.872C818.762 539.96 819.727 539.887 820.693 539.795L821.733 540.359C820.295 542.134 816.692 541.645 814.604 543.071C812.124 542.553 809.505 541.294 807.108 540.419ZM729.156 289.775C727.443 287.788 725.845 285.543 723.879 283.809C710.579 272.077 685.429 266.078 668.098 264.775C653.12 263.65 638.123 264.374 623.126 264.515L561.735 264.608L494.741 264.538C477.15 264.463 459.618 263.132 442.184 266.344C425.832 269.356 408.346 277.201 395.749 288.137C391.935 291.448 387.348 295.901 385.208 300.549C376.72 311.816 367.662 326.635 365.207 340.665C365.358 340.66 365.51 340.669 365.66 340.65C367.794 340.382 369.064 338.731 370.433 337.25C373.553 329.077 379.931 323.231 381.344 314.081L380.706 313.934L379.689 314.796L378.996 314.596L378.95 313.683C380.139 311.227 381.037 309.018 383.621 307.945C386.205 306.483 388.653 304.16 390.994 302.302C396.846 297.656 402.639 292.692 409.071 288.867C421.952 281.206 437.793 276.914 452.582 275.128C465.585 273.557 479.065 274.191 492.142 274.201L563.572 274.576L637.106 274.626C649.42 274.631 662.031 273.733 674.3 274.894C677.774 275.223 680.963 277.362 684.351 278.147C689.263 279.284 694.461 278.712 699.443 279.956C709.5 282.468 718.984 287.204 729.156 289.775ZM839.52 552.967C839.575 563.759 839.904 574.564 839.886 585.352C839.872 593.824 839.437 602.279 839.622 610.754C837.22 612.86 835.19 615.173 833.111 617.589L832.735 617.441L832.134 616.522C829.816 615.746 825.006 616.876 822.364 617.101L819.031 618.424C818.167 618.148 817.038 617.894 816.264 617.435C814.778 616.554 814.757 615.286 814.315 613.754C811.765 592.422 817.411 581.487 809.631 558.405C821.206 558.615 829.04 558.495 839.52 552.967ZM397.43 451.266L397.754 450.198C396.59 448.584 395.972 447.353 393.837 447.039C385.682 445.839 372.563 450.792 366.289 456.008C364.821 457.228 363.099 459.051 362.946 461.052C362.837 462.467 363.549 463.593 364.559 464.5C368.355 467.908 374.536 469.804 379.219 471.69C380.431 472.181 381.427 472.564 382.734 472.746C389.372 470.786 396.295 475.172 402.997 475.167C404.214 475.166 405.19 474.904 406.062 474.007C406.914 473.131 407.041 473.165 406.986 471.902C405.338 470.319 402.588 469.994 400.572 468.955C399.113 468.203 398.534 467.701 398.004 466.167C398.524 464.538 399.604 463.794 400.859 462.727L401.434 462.244C399.5 460.478 396.12 457.945 395.971 455.131C395.881 453.442 396.455 452.553 397.43 451.266ZM835.264 567.725C835.935 565.869 836.781 563.811 835.819 561.88C835.016 560.268 833.328 559.71 831.747 559.201C830.807 560.664 830.033 561.667 830.065 563.485C830.712 565.36 831.717 566.085 833.445 566.924Q834.343 567.351 835.264 567.725ZM732.443 446.619C732.715 449.931 733.26 453.703 731.994 456.865C730.156 461.454 725.337 462.806 721.134 464.488Q721.528 465.293 721.982 466.066Q722.436 466.839 722.948 467.574Q723.46 468.31 724.026 469.005Q724.592 469.7 725.21 470.349Q725.827 470.999 726.493 471.6Q727.158 472.2 727.867 472.749Q728.576 473.297 729.325 473.789Q730.074 474.282 730.858 474.716C731.051 474.734 731.244 474.755 731.437 474.771L732.403 474.842C741.182 475.545 755.145 471.754 762.357 466.678C764.215 465.37 766.366 463.2 766.575 460.797C766.753 458.751 765.992 457.113 764.592 455.671C758.418 449.313 741.093 446.736 732.443 446.619ZM363.734 371.137L362.367 374.513C362.164 385.959 363.596 394.178 370.096 403.768L371.231 402.791C372.078 400.691 371.381 396.728 371.315 394.365Q371.33 392.8 371.262 391.236Q371.193 389.672 371.041 388.114Q370.889 386.556 370.653 385.008Q370.418 383.461 370.099 381.928Q369.781 380.395 369.381 378.882Q368.981 377.368 368.501 375.879Q368.021 374.389 367.461 372.927Q366.901 371.465 366.264 370.035L365.209 369.76L363.734 371.137ZM757.979 346.039C758.172 346.892 758.156 347.069 757.908 347.897C757.653 348.748 761.572 377.877 761.996 379.533C763.13 379.814 764.134 380.163 765.294 379.804C766.411 379.457 767.165 378.272 767.569 377.234C769.847 371.377 767.147 351.191 764.531 345.431C763.059 343.793 761.773 342.254 759.799 341.192L758.667 341.273C757.689 342.931 757.804 344.162 757.979 346.039ZM554.943 448.432C554.23 449.896 554.104 450.022 554.363 451.609C555.041 452.307 555.549 452.855 556.39 453.359C556.947 451.87 557.618 451.023 557.094 449.489C556.383 449.119 555.689 448.729 554.943 448.432Z"/>
	<defs>
		<linearGradient id="gradient_0" gradientUnits="userSpaceOnUse" x1="860.77942" y1="540.65961" x2="871.75317" y2="537.65009">
			<stop offset="0" stop-color="white" stop-opacity="0.94901961"/>
			<stop offset="1" stop-color="white"/>
		</linearGradient>
	</defs>
	<path fill="url(#gradient_0)" transform="scale(1.57407 1.57407)" d="M864.476 559.944C864.348 548.326 863.332 532.173 864.534 521.064C865.832 520.364 867.189 520.656 868.646 520.684C869.036 537.705 869.253 554.932 868.615 571.953C868.311 573.637 868.027 575.313 867.796 577.008C867.212 576.761 867.417 576.95 867.123 576.512C867.142 571.616 867.784 557.669 865.994 553.839C865.985 555.254 866.131 556.392 865.499 557.689L865.223 556.01C864.916 557.313 864.698 558.625 864.476 559.944Z"/>
	<path fill="#FEFEFE" fill-opacity="0.84313726" transform="scale(1.57407 1.57407)" d="M864.476 559.944C864.698 558.625 864.916 557.313 865.223 556.01L865.499 557.689C866.131 556.392 865.985 555.254 865.994 553.839C867.784 557.669 867.142 571.616 867.123 576.512L867.074 577.353C866.742 583.663 868.824 593.31 864.897 598.634C864.941 588.545 864.97 577.926 864.029 567.901C863.732 565.359 863.865 562.786 863.904 560.231L864.476 559.944Z"/>
	<path fill="#4E637A" transform="scale(1.57407 1.57407)" d="M819.587 461.769C821.092 461.706 822.462 461.683 823.923 461.28C826.135 460.669 833.729 461.805 835.575 463.043C836.146 463.427 836.157 463.511 836.508 463.989C835.937 465.038 835.342 465.089 834.303 465.617C843.41 468.314 850.296 471.377 857.383 477.783Q861.612 478.386 865.809 479.178L868.965 483.147L870.027 485.499C871.971 489.074 873.973 492.634 874.86 496.646C875.959 500.335 876.138 504.615 877.736 508.047C877.299 517.849 878.164 527.612 878.008 537.407C877.843 547.781 876.603 558.168 876.673 568.535C876.782 584.556 879.096 601.823 874.821 617.456C872.486 625.996 867.663 633.372 861.173 639.348C852.065 647.735 837.722 655.34 825.032 654.681C812.821 654.047 800.137 646.186 792.19 637.205C790.539 635.339 789.178 633.312 787.839 631.216C789.918 633.082 792.91 636.449 795.839 636.51C796.639 635.433 796.662 634.883 796.435 633.547C795.679 629.087 789.657 620.302 791.992 616.217C792.344 615.602 792.473 615.527 792.928 615.083L793.809 615.156C796.317 618.269 796.79 622.364 799.669 625.628C806.087 632.907 813.164 632.221 818.474 636.624C815.95 636.852 813.304 636.598 810.77 636.511C813.422 638.808 816.448 641.298 819.731 642.618C827.601 645.782 839.337 642.06 846.704 638.624C853.284 635.555 858.091 631.383 860.655 624.453C861.062 624.293 861.563 624.114 861.926 623.88C862.932 623.231 863.225 622.962 863.541 621.83C862.922 621.332 862.382 620.793 861.819 620.234C861.766 618.239 862.871 616.724 863.836 614.992C863.944 614.798 864.063 614.61 864.169 614.414C865.116 612.66 864.731 608.496 864.044 606.644C863.709 605.742 863.832 605.725 864.037 604.819L864.897 598.634C868.824 593.31 866.742 583.663 867.074 577.353L867.123 576.512C867.417 576.95 867.212 576.761 867.796 577.008C868.027 575.313 868.311 573.637 868.615 571.953C869.253 554.932 869.036 537.705 868.646 520.684C869.218 518.376 868.779 515.571 868.68 513.185C865.046 507.081 864.745 496.686 857.665 493.295C852.896 487.121 847.845 482.195 841.611 477.494C835.825 475.588 830.052 473.519 823.883 473.452C812.604 473.329 805.531 481.927 798.209 489.208C793.632 489.726 789.432 489.686 784.847 489.295C784.67 484.631 784.598 480.287 787.269 476.285C787.387 478.192 787.158 479.087 788.529 480.499C789.558 480.761 790.316 480.879 791.331 480.548C796.252 478.945 801.738 472.594 804.196 468.149C808.078 464.043 814.807 463.446 820.132 462.622L819.587 461.769Z"/>
	<path fill="#6E93B0" transform="scale(1.57407 1.57407)" d="M841.611 477.494C843.262 476.607 844.201 476.145 846.114 476.787C853.489 479.264 859.868 491.541 864.457 497.661C862.687 493.686 860.801 489.729 859.15 485.704C864.302 492.868 870.374 503.387 868.799 512.672C868.769 512.845 868.719 513.014 868.68 513.185C865.046 507.081 864.745 496.686 857.665 493.295C852.896 487.121 847.845 482.195 841.611 477.494Z"/>
	<path fill="#FEFEFE" transform="scale(1.57407 1.57407)" d="M819.587 461.769C821.092 461.706 822.462 461.683 823.923 461.28C826.135 460.669 833.729 461.805 835.575 463.043C836.146 463.427 836.157 463.511 836.508 463.989C835.937 465.038 835.342 465.089 834.303 465.617C822.457 464.835 821.494 465.072 810.225 467.9C808.288 468.386 806.079 469.1 804.196 468.149C808.078 464.043 814.807 463.446 820.132 462.622L819.587 461.769Z"/>
	<path fill="#ACC2CC" transform="scale(1.57407 1.57407)" d="M868.615 571.953C870.755 581.585 868.84 598.953 867.215 608.719C866.599 606.331 865.589 606.479 864.037 604.819L864.897 598.634C868.824 593.31 866.742 583.663 867.074 577.353L867.123 576.512C867.417 576.95 867.212 576.761 867.796 577.008C868.027 575.313 868.311 573.637 868.615 571.953Z"/>
	<path fill="#AAB1BA" transform="scale(1.57407 1.57407)" d="M862.911 485.355C865.762 484.62 867.222 484.634 870.027 485.499C871.971 489.074 873.973 492.634 874.86 496.646C871.948 496.178 871.807 492.002 869.493 491.169C868.811 492.124 868.623 493.822 868.286 494.974C866.119 493.072 864.283 488.034 862.911 485.355Z"/>
	<path fill="#ACC2CC" transform="scale(1.57407 1.57407)" d="M857.383 477.783Q861.612 478.386 865.809 479.178L868.965 483.147L870.027 485.499C867.222 484.634 865.762 484.62 862.911 485.355C860.969 482.887 859.148 480.381 857.383 477.783Z"/>
	<path fill="#3C4C6A" transform="scale(1.57407 1.57407)" d="M864.029 567.901C864.97 577.926 864.941 588.545 864.897 598.634L864.037 604.819C863.832 605.725 863.709 605.742 864.044 606.644C864.731 608.496 865.116 612.66 864.169 614.414C864.063 614.61 863.944 614.798 863.836 614.992C862.871 616.724 861.766 618.239 861.819 620.234C862.382 620.793 862.922 621.332 863.541 621.83C863.225 622.962 862.932 623.231 861.926 623.88C861.563 624.114 861.062 624.293 860.655 624.453C858.524 623.832 856.458 624.594 854.379 625.117C855.591 620.116 858.921 616.034 859.693 610.792C860.608 604.578 860.086 598.147 860.08 591.883C860.071 583.518 861.617 575.897 864.029 567.901Z"/>
	<path fill="#ACC2CC" transform="scale(1.57407 1.57407)" d="M857.665 493.295C864.745 496.686 865.046 507.081 868.68 513.185C868.779 515.571 869.218 518.376 868.646 520.684C867.189 520.656 865.832 520.364 864.534 521.064C863.332 532.173 864.348 548.326 864.476 559.944L863.904 560.231C863.719 537.153 866.168 515.307 857.665 493.295Z"/>
	<path fill="#5B5B63" transform="scale(1.57407 1.57407)" d="M869.452 482.646C872.042 485.524 874.598 488.427 877.392 491.112C877.928 496.791 878.51 502.355 877.736 508.047C876.138 504.615 875.959 500.335 874.86 496.646C873.973 492.634 871.971 489.074 870.027 485.499L868.965 483.147L869.452 482.646Z"/>
	<defs>
		<linearGradient id="gradient_1" gradientUnits="userSpaceOnUse" x1="574.55237" y1="762.95746" x2="562.10046" y2="540.90436">
			<stop offset="0" stop-color="#1B242F"/>
			<stop offset="1" stop-color="#4B6479"/>
		</linearGradient>
	</defs>
	<path fill="url(#gradient_1)" transform="scale(1.57407 1.57407)" d="M769.999 475.04C771.736 485.848 770.786 496.965 770.555 507.844Q769.858 530.757 769.912 553.681L770.515 638.171C770.54 654.087 771.493 670.01 769.103 685.831C766.873 700.595 761.421 715.137 752.628 727.264C737.946 747.515 713.569 761.817 688.904 765.583C672.779 768.045 656.667 767.177 640.456 767.055L570.415 766.418C554.019 766.402 537.477 766.101 521.1 766.525C495.299 767.193 469.314 769.067 443.675 764.971C428.296 762.515 413.124 756.783 400.534 747.525C383.79 735.213 367.085 712.221 363.518 691.424C359.878 672.742 360.557 653.115 360.56 634.181Q360.497 603.92 360.764 573.661C360.476 567.072 360.508 560.576 361.054 554.001C361.061 555.418 360.914 557.134 361.344 558.489C361.673 559.527 361.979 559.662 362.86 560.161L363.851 559.861C366.375 557.045 366.673 554.527 367.237 550.912C366.691 538.076 367.792 524.984 367.832 512.122C367.862 502.322 366.363 492.161 367.952 482.446L370.612 478.774C379.929 479.386 390.78 482.752 399.588 485.919L405.455 487.187C411.213 487.165 416.921 487.956 422.668 488.233C430.78 488.624 438.889 488.513 446.992 489.178L450.152 492.717C450.558 493.16 450.962 493.606 451.383 494.036C453.503 496.2 455.62 498.375 458.818 498.426C459.565 497.822 459.754 497.878 459.992 496.88C460.456 494.935 459.865 493.127 458.859 491.472L456.75 487.976C461.727 491.076 464.959 496.247 468.192 501.012C485.072 501.015 501.903 499.194 518.781 498.981C544.322 498.659 569.912 498.872 595.457 498.939C612.487 498.984 645.164 502.014 660.3 496.658C663.329 497.729 668.746 497.957 671.874 497.268C672.243 497.666 672.71 497.902 673.167 498.189C673.861 498.133 673.962 498.157 674.715 497.92C676.831 497.253 678.756 495.239 679.823 493.37C680.519 492.151 680.899 491.759 682.248 491.289Q683.028 492.092 683.781 492.921C692.339 493.509 701.181 493.036 709.771 493.004C711.536 493.033 713.186 492.862 714.934 492.629C721.721 492.457 728.632 491.035 735.27 489.675L738.43 489.003C743.834 487.088 749.733 485.846 755.282 484.361C759.06 483.415 766.303 482.926 769.033 480.014C770.372 478.586 769.968 476.869 769.999 475.04ZM367.952 482.446C366.363 492.161 367.862 502.322 367.832 512.122C367.792 524.984 366.691 538.076 367.237 550.912C368.122 554.239 367.692 557.438 367.938 560.809C372.129 556.4 376.443 552.503 381.872 549.66C381.871 554.566 382.025 559.332 382.538 564.219C388.181 566.083 393.597 569.386 399.455 570.268C408.884 571.688 418.915 571.595 428.437 571.627C435.645 571.651 444.577 570.873 451.497 573.08C453.136 573.603 454.061 574.418 454.861 575.933C455.998 578.086 456.504 580.947 457.821 582.913L460.354 582.321C465.088 593.137 471.953 602.451 483.256 606.977C489.612 609.522 497.672 610.11 504.063 607.292Q507.795 605.601 511.335 603.539C511.873 603.227 511.629 603.329 512.164 603.179C514.644 602.832 515.72 600.955 518.302 601.255C522.105 598.803 524.958 591.715 526.407 587.567C541.535 580.265 563.009 583.32 579.236 585.23C583.748 585.761 588.887 586.967 593.379 586.78C595.34 586.698 597.249 585.839 598.939 584.906C599.043 584.849 600.101 584.22 600.29 584.181C601.36 583.955 603.358 585.892 604.251 586.572L606.293 585.126C611.192 595.246 617.536 604.066 628.607 607.861C631.804 608.958 635.241 609.592 638.626 609.398L639.054 610.716C640.091 611.215 641.004 611.326 642.139 611.468C653.087 608.963 658.994 604.108 666.206 595.754C669.767 589.899 671.529 583.375 673.249 576.807C689.15 570.521 715.46 576.219 727.64 567.519C729.553 566.152 729.979 565.129 730.36 562.846C730.931 559.423 732.774 557.445 734.428 554.532C735.239 553.104 735.962 551.613 736.277 549.99C737.289 544.783 736.719 538.941 736.981 533.626C737.3 527.156 738.126 520.667 738.159 514.188C738.183 509.417 737.551 504.677 737.693 499.897C737.799 496.311 739.418 492.453 738.43 489.003L735.27 489.675C728.632 491.035 721.721 492.457 714.934 492.629C713.186 492.862 711.536 493.033 709.771 493.004C701.181 493.036 692.339 493.509 683.781 492.921Q683.028 492.092 682.248 491.289C680.899 491.759 680.519 492.151 679.823 493.37C678.756 495.239 676.831 497.253 674.715 497.92C673.962 498.157 673.861 498.133 673.167 498.189C672.71 497.902 672.243 497.666 671.874 497.268C668.746 497.957 663.329 497.729 660.3 496.658C645.164 502.014 612.487 498.984 595.457 498.939C569.912 498.872 544.322 498.659 518.781 498.981C501.903 499.194 485.072 501.015 468.192 501.012C464.959 496.247 461.727 491.076 456.75 487.976L458.859 491.472C459.865 493.127 460.456 494.935 459.992 496.88C459.754 497.878 459.565 497.822 458.818 498.426C455.62 498.375 453.503 496.2 451.383 494.036C450.962 493.606 450.558 493.16 450.152 492.717L446.992 489.178C438.889 488.513 430.78 488.624 422.668 488.233C416.921 487.956 411.213 487.165 405.455 487.187L399.588 485.919C390.78 482.752 379.929 479.386 370.612 478.774L367.952 482.446ZM657.261 645.557C659.923 642.97 662.186 640.485 664.212 637.352C662.346 637.63 659.157 638.502 657.461 637.472C656.497 636.886 655.754 635.84 655.088 634.95L654.354 635.312C647.662 638.658 641.813 643.495 635.051 646.685C595.479 665.356 555.501 665.776 514.375 652.403C506.806 649.942 498.716 647.396 491.924 643.181C487.36 640.349 483.282 636.408 478.373 634.199C475.688 632.991 473.411 632.376 470.469 632.708C469.451 634.453 468.477 635.808 468.491 637.878C471.635 646.958 489.828 656.741 498.065 660.762C534.384 678.492 580.516 681.2 618.655 667.901Q621.305 666.981 623.909 665.936Q626.512 664.891 629.063 663.723Q631.614 662.556 634.106 661.268Q636.598 659.98 639.026 658.574Q641.454 657.169 643.812 655.65Q646.171 654.13 648.454 652.5Q650.737 650.871 652.94 649.134Q655.143 647.397 657.261 645.557ZM595.991 688.007C581.564 690.213 566.208 691.313 551.655 689.712C549.993 691.022 548.017 691.163 546.933 692.359C549.368 692.762 546.438 692.37 548.244 692.385C553.2 692.427 558.309 693.245 563.313 693.367C574.307 693.634 585.406 692.53 596.22 690.629L600.071 689.906C629.401 684.278 663.4 670.576 680.562 645.141C682.814 641.802 686.594 636.81 685.784 632.613C667.854 661.573 639.325 678.386 606.56 685.973Q601.304 687.14 595.991 688.007ZM530.999 687.041C524.852 685.146 516.07 680.623 509.618 682.263C511.388 684.814 515.44 685.928 518.381 686.528C522.638 687.397 526.709 686.99 530.999 687.041Z"/>
	<defs>
		<linearGradient id="gradient_2" gradientUnits="userSpaceOnUse" x1="553.39838" y1="585.66229" x2="552.646" y2="482.75598">
			<stop offset="0" stop-color="#4782B6"/>
			<stop offset="1" stop-color="#3D9CEC"/>
		</linearGradient>
	</defs>
	<path fill="url(#gradient_2)" transform="scale(1.57407 1.57407)" d="M370.612 478.774C379.929 479.386 390.78 482.752 399.588 485.919L405.455 487.187C411.213 487.165 416.921 487.956 422.668 488.233C430.78 488.624 438.889 488.513 446.992 489.178L450.152 492.717C450.558 493.16 450.962 493.606 451.383 494.036C453.503 496.2 455.62 498.375 458.818 498.426C459.565 497.822 459.754 497.878 459.992 496.88C460.456 494.935 459.865 493.127 458.859 491.472L456.75 487.976C461.727 491.076 464.959 496.247 468.192 501.012C485.072 501.015 501.903 499.194 518.781 498.981C544.322 498.659 569.912 498.872 595.457 498.939C612.487 498.984 645.164 502.014 660.3 496.658C663.329 497.729 668.746 497.957 671.874 497.268C672.243 497.666 672.71 497.902 673.167 498.189C673.861 498.133 673.962 498.157 674.715 497.92C676.831 497.253 678.756 495.239 679.823 493.37C680.519 492.151 680.899 491.759 682.248 491.289Q683.028 492.092 683.781 492.921C692.339 493.509 701.181 493.036 709.771 493.004C711.536 493.033 713.186 492.862 714.934 492.629C721.721 492.457 728.632 491.035 735.27 489.675L738.43 489.003C739.418 492.453 737.799 496.311 737.693 499.897C737.551 504.677 738.183 509.417 738.159 514.188C738.126 520.667 737.3 527.156 736.981 533.626C736.719 538.941 737.289 544.783 736.277 549.99C735.962 551.613 735.239 553.104 734.428 554.532C732.774 557.445 730.931 559.423 730.36 562.846C729.979 565.129 729.553 566.152 727.64 567.519C715.46 576.219 689.15 570.521 673.249 576.807C671.529 583.375 669.767 589.899 666.206 595.754C658.994 604.108 653.087 608.963 642.139 611.468C641.004 611.326 640.091 611.215 639.054 610.716L638.626 609.398C635.241 609.592 631.804 608.958 628.607 607.861C617.536 604.066 611.192 595.246 606.293 585.126L604.251 586.572C603.358 585.892 601.36 583.955 600.29 584.181C600.101 584.22 599.043 584.849 598.939 584.906C597.249 585.839 595.34 586.698 593.379 586.78C588.887 586.967 583.748 585.761 579.236 585.23C563.009 583.32 541.535 580.265 526.407 587.567C524.958 591.715 522.105 598.803 518.302 601.255C515.72 600.955 514.644 602.832 512.164 603.179C511.629 603.329 511.873 603.227 511.335 603.539Q507.795 605.601 504.063 607.292C497.672 610.11 489.612 609.522 483.256 606.977C471.953 602.451 465.088 593.137 460.354 582.321L457.821 582.913C456.504 580.947 455.998 578.086 454.861 575.933C454.061 574.418 453.136 573.603 451.497 573.08C444.577 570.873 435.645 571.651 428.437 571.627C418.915 571.595 408.884 571.688 399.455 570.268C393.597 569.386 388.181 566.083 382.538 564.219C382.025 559.332 381.871 554.566 381.872 549.66C376.443 552.503 372.129 556.4 367.938 560.809C367.692 557.438 368.122 554.239 367.237 550.912C366.691 538.076 367.792 524.984 367.832 512.122C367.862 502.322 366.363 492.161 367.952 482.446L370.612 478.774ZM639.273 553.107C644.039 551.971 648.154 550.517 650.957 546.16Q651.317 545.588 651.619 544.982Q651.921 544.377 652.162 543.745Q652.402 543.112 652.579 542.459Q652.756 541.806 652.867 541.139Q652.978 540.472 653.022 539.797Q653.067 539.122 653.044 538.446Q653.021 537.769 652.932 537.099Q652.842 536.428 652.687 535.77C651.793 531.841 649.266 528.56 645.786 526.555C642.59 524.714 638.92 524.158 635.275 524.231C630.024 526.277 625.56 528.523 623.069 533.952C621.499 537.375 621.277 541.264 622.607 544.804Q622.821 545.379 623.091 545.929Q623.361 546.479 623.685 547Q624.008 547.521 624.382 548.007Q624.756 548.492 625.177 548.938Q625.598 549.385 626.06 549.786Q626.523 550.188 627.024 550.542Q627.525 550.896 628.058 551.198Q628.592 551.5 629.153 551.747C632.145 553.075 636.034 553.622 639.273 553.107ZM495.907 551.994C498.325 551.329 500.759 549.542 502.277 547.57C504.504 544.678 505.458 540.775 504.976 537.171C504.455 533.27 502.609 529.201 499.344 526.862C496.075 524.521 491.427 524.015 487.572 524.857Q487.131 524.956 486.696 525.077Q486.261 525.199 485.833 525.342Q485.405 525.485 484.985 525.651Q484.564 525.816 484.153 526.002Q483.742 526.188 483.34 526.396Q482.939 526.603 482.549 526.83Q482.159 527.057 481.781 527.304Q481.402 527.551 481.038 527.817Q480.673 528.083 480.322 528.368Q479.971 528.652 479.635 528.954Q479.299 529.256 478.979 529.574Q478.659 529.893 478.356 530.228Q478.052 530.562 477.766 530.912Q477.481 531.261 477.213 531.625Q476.945 531.989 476.697 532.366Q476.448 532.743 476.219 533.132C474.444 536.216 473.704 540.069 474.837 543.506C476.032 547.131 479.572 550.284 482.866 551.991C486.907 551.217 491.864 551.322 495.907 551.994Z"/>
	<path fill="#232E3E" transform="scale(1.57407 1.57407)" d="M606.293 585.126Q604.626 578.275 603.811 571.271C602.045 555.967 604.731 537.486 614.63 525.158C619.699 518.845 626.948 514.243 635.136 513.526C643.033 512.834 650.761 515.904 656.794 520.873C673.304 534.47 670.575 550.841 672.625 569.602L672.68 570.072C673.878 572.133 673.469 574.525 673.249 576.807C671.529 583.375 669.767 589.899 666.206 595.754C658.994 604.108 653.087 608.963 642.139 611.468C641.004 611.326 640.091 611.215 639.054 610.716L638.626 609.398C635.241 609.592 631.804 608.958 628.607 607.861C617.536 604.066 611.192 595.246 606.293 585.126ZM639.273 553.107C644.039 551.971 648.154 550.517 650.957 546.16Q651.317 545.588 651.619 544.982Q651.921 544.377 652.162 543.745Q652.402 543.112 652.579 542.459Q652.756 541.806 652.867 541.139Q652.978 540.472 653.022 539.797Q653.067 539.122 653.044 538.446Q653.021 537.769 652.932 537.099Q652.842 536.428 652.687 535.77C651.793 531.841 649.266 528.56 645.786 526.555C642.59 524.714 638.92 524.158 635.275 524.231C630.024 526.277 625.56 528.523 623.069 533.952C621.499 537.375 621.277 541.264 622.607 544.804Q622.821 545.379 623.091 545.929Q623.361 546.479 623.685 547Q624.008 547.521 624.382 548.007Q624.756 548.492 625.177 548.938Q625.598 549.385 626.06 549.786Q626.523 550.188 627.024 550.542Q627.525 550.896 628.058 551.198Q628.592 551.5 629.153 551.747C632.145 553.075 636.034 553.622 639.273 553.107Z"/>
	<path fill="#FEFEFE" transform="scale(1.57407 1.57407)" d="M672.68 570.072C673.878 572.133 673.469 574.525 673.249 576.807C671.529 583.375 669.767 589.899 666.206 595.754C658.994 604.108 653.087 608.963 642.139 611.468C641.004 611.326 640.091 611.215 639.054 610.716L638.626 609.398C643.914 608.409 648.692 607.106 653.273 604.206C665.479 596.478 669.711 583.447 672.68 570.072Z"/>
	<path fill="#FEFEFE" fill-opacity="0.87058824" transform="scale(1.57407 1.57407)" d="M635.275 524.231C638.92 524.158 642.59 524.714 645.786 526.555C649.266 528.56 651.793 531.841 652.687 535.77Q652.842 536.428 652.932 537.099Q653.021 537.769 653.044 538.446Q653.067 539.122 653.022 539.797Q652.978 540.472 652.867 541.139Q652.756 541.806 652.579 542.459Q652.402 543.112 652.162 543.745Q651.921 544.377 651.619 544.982Q651.317 545.588 650.957 546.16C648.154 550.517 644.039 551.971 639.273 553.107C636.034 553.622 632.145 553.075 629.153 551.747Q628.592 551.5 628.058 551.198Q627.525 550.896 627.024 550.542Q626.523 550.188 626.061 549.786Q625.598 549.385 625.177 548.938Q624.756 548.492 624.382 548.007Q624.008 547.521 623.685 547Q623.361 546.479 623.091 545.929Q622.821 545.379 622.607 544.804C621.277 541.264 621.499 537.375 623.069 533.952C625.56 528.523 630.024 526.277 635.275 524.231Z"/>
	<path fill="#232E3E" transform="scale(1.57407 1.57407)" d="M460.354 582.321Q458.541 576.269 457.942 569.98C456.477 554.805 458.912 537.595 468.923 525.531C474.205 519.167 481.622 514.187 490.046 513.529C498.277 512.885 506.377 516.318 512.441 521.743C526.766 534.558 526.6 554.061 527.529 571.762L528.273 572.152C529.261 576.957 527.63 582.898 526.407 587.567C524.958 591.715 522.105 598.803 518.302 601.255C515.72 600.955 514.644 602.832 512.164 603.179C511.629 603.329 511.873 603.227 511.335 603.539Q507.795 605.601 504.063 607.292C497.672 610.11 489.612 609.522 483.256 606.977C471.953 602.451 465.088 593.137 460.354 582.321ZM495.907 551.994C498.325 551.329 500.759 549.542 502.277 547.57C504.504 544.678 505.458 540.775 504.976 537.171C504.455 533.27 502.609 529.201 499.344 526.862C496.075 524.521 491.427 524.015 487.572 524.857Q487.131 524.956 486.696 525.077Q486.261 525.199 485.833 525.342Q485.405 525.485 484.985 525.651Q484.564 525.816 484.153 526.002Q483.742 526.188 483.34 526.396Q482.939 526.603 482.549 526.83Q482.159 527.057 481.781 527.304Q481.402 527.551 481.038 527.817Q480.673 528.083 480.322 528.368Q479.971 528.652 479.635 528.954Q479.299 529.256 478.979 529.574Q478.659 529.893 478.356 530.228Q478.052 530.562 477.766 530.912Q477.481 531.261 477.213 531.625Q476.945 531.989 476.697 532.366Q476.448 532.743 476.219 533.132C474.444 536.216 473.704 540.069 474.837 543.506C476.032 547.131 479.572 550.284 482.866 551.991C486.907 551.217 491.864 551.322 495.907 551.994Z"/>
	<path fill="#FEFEFE" transform="scale(1.57407 1.57407)" d="M527.529 571.762L528.273 572.152C529.261 576.957 527.63 582.898 526.407 587.567C524.958 591.715 522.105 598.803 518.302 601.255C515.72 600.955 514.644 602.832 512.164 603.179C521.492 593.872 525.676 584.836 527.529 571.762Z"/>
	<path fill="#FEFEFE" fill-opacity="0.96470588" transform="scale(1.57407 1.57407)" d="M482.866 551.991C479.572 550.284 476.032 547.131 474.837 543.506C473.704 540.069 474.444 536.216 476.219 533.132Q476.448 532.743 476.697 532.366Q476.945 531.989 477.213 531.625Q477.481 531.261 477.766 530.912Q478.052 530.562 478.356 530.228Q478.659 529.893 478.979 529.574Q479.299 529.256 479.635 528.954Q479.971 528.652 480.322 528.368Q480.673 528.083 481.037 527.817Q481.402 527.551 481.781 527.304Q482.159 527.057 482.549 526.83Q482.939 526.603 483.34 526.396Q483.742 526.188 484.153 526.002Q484.564 525.816 484.985 525.651Q485.405 525.486 485.833 525.342Q486.261 525.199 486.696 525.077Q487.131 524.956 487.572 524.857C491.427 524.015 496.075 524.521 499.344 526.862C502.609 529.201 504.455 533.27 504.976 537.171C505.458 540.775 504.504 544.678 502.277 547.57C500.759 549.542 498.325 551.329 495.907 551.994C491.864 551.322 486.907 551.217 482.866 551.991Z"/>
	<path fill="#FEFEFE" transform="scale(1.57407 1.57407)" d="M482.866 551.991C486.907 551.217 491.864 551.322 495.907 551.994C491.107 553.908 487.704 553.817 482.866 551.991Z"/>
	<path fill="#DAFEFF" transform="scale(1.57407 1.57407)" d="M370.612 478.774C379.929 479.386 390.78 482.752 399.588 485.919L405.455 487.187C411.213 487.165 416.921 487.956 422.668 488.233C430.78 488.624 438.889 488.513 446.992 489.178L450.152 492.717L449.946 495.167L450.208 495.631L449.881 496.063C439.333 492.09 428.358 493.169 417.299 492.983C403.76 492.755 389.792 491.066 377.121 486.059C373.996 485.12 370.966 483.702 367.952 482.446L370.612 478.774Z"/>
	<path fill="#40A2EF" transform="scale(1.57407 1.57407)" d="M405.455 487.187C411.213 487.165 416.921 487.956 422.668 488.233C430.78 488.624 438.889 488.513 446.992 489.178L450.152 492.717L449.946 495.167C448.919 493.658 447.551 492.314 446.324 490.959C432.872 489.702 418.22 492.533 405.455 487.187Z"/>
	<path fill="#FEFEFE" transform="scale(1.57407 1.57407)" d="M370.612 478.774C379.929 479.386 390.78 482.752 399.588 485.919C393.398 488.938 383.899 480.044 377.279 482.314C376.339 483.708 376.834 484.445 377.121 486.059C373.996 485.12 370.966 483.702 367.952 482.446L370.612 478.774Z"/>
	<defs>
		<linearGradient id="gradient_3" gradientUnits="userSpaceOnUse" x1="616.76788" y1="783.23114" x2="553.93408" y2="535.94366">
			<stop offset="0" stop-color="#3C5264"/>
			<stop offset="1" stop-color="#3E6788"/>
		</linearGradient>
	</defs>
	<path fill="url(#gradient_3)" transform="scale(1.57407 1.57407)" d="M769.999 475.04C771.736 485.848 770.786 496.965 770.555 507.844Q769.858 530.757 769.912 553.681L770.515 638.171C770.54 654.087 771.493 670.01 769.103 685.831C766.873 700.595 761.421 715.137 752.628 727.264C737.946 747.515 713.569 761.817 688.904 765.583C672.779 768.045 656.667 767.177 640.456 767.055L570.415 766.418C554.019 766.402 537.477 766.101 521.1 766.525C495.299 767.193 469.314 769.067 443.675 764.971C428.296 762.515 413.124 756.783 400.534 747.525C383.79 735.213 367.085 712.221 363.518 691.424C365.909 690.704 368.896 689.663 370.572 687.752C374.697 703.431 381.836 718.979 393.143 730.791C411.347 749.811 437.071 758.394 462.96 758.907C463.948 758.108 464.911 757.454 465.993 756.799C466.562 757.097 467.134 757.375 467.71 757.66C468.545 758.073 469.367 758.493 470.237 758.831C471.389 759.278 472.403 759.426 473.628 759.49C483.535 760.007 493.808 759.393 503.759 759.389L570.378 759.342L631.788 758.899C648.011 758.853 664.362 759.383 680.538 757.96C690.277 757.104 699.494 754.952 708.475 751.041C727.947 742.562 747.297 725.425 755.158 705.366C767.151 674.762 763.57 625.208 764.064 592.496C764.183 584.6 766.708 564.203 763.454 557.729C762.564 555.957 760.572 555.051 758.739 554.619C755.246 553.797 750.497 554.457 748.026 557.301C745.191 560.564 744.05 566.359 742.394 570.381C738.387 580.116 729.45 594.222 719.977 599.461C716.877 601.175 713.808 601.825 710.282 601.803C704.286 601.766 698.766 599.32 692.894 598.486C683.728 597.184 675.325 598.367 666.206 595.754C669.767 589.899 671.529 583.375 673.249 576.807C689.15 570.521 715.46 576.219 727.64 567.519C729.553 566.152 729.979 565.129 730.36 562.846C730.931 559.423 732.774 557.445 734.428 554.532C735.239 553.104 735.962 551.613 736.277 549.99C737.289 544.783 736.719 538.941 736.981 533.626C737.3 527.156 738.126 520.667 738.159 514.188C738.183 509.417 737.551 504.677 737.693 499.897C737.799 496.311 739.418 492.453 738.43 489.003C743.834 487.088 749.733 485.846 755.282 484.361C759.06 483.415 766.303 482.926 769.033 480.014C770.372 478.586 769.968 476.869 769.999 475.04Z"/>
	<defs>
		<linearGradient id="gradient_4" gradientUnits="userSpaceOnUse" x1="393.18298" y1="656.06024" x2="338.71954" y2="613.91394">
			<stop offset="0" stop-color="#7A95A1"/>
			<stop offset="1" stop-color="#ABADB6"/>
		</linearGradient>
	</defs>
	<path fill="url(#gradient_4)" transform="scale(1.57407 1.57407)" d="M367.237 550.912C368.122 554.239 367.692 557.438 367.938 560.809C367.827 564.303 367.845 567.868 367.49 571.345C367.797 596.62 367.36 621.897 367.809 647.167C368.045 660.461 367.442 674.792 370.572 687.752C368.896 689.663 365.909 690.704 363.518 691.424C359.878 672.742 360.557 653.115 360.56 634.181Q360.497 603.92 360.764 573.661C360.476 567.072 360.508 560.576 361.054 554.001C361.061 555.418 360.914 557.134 361.344 558.489C361.673 559.527 361.979 559.662 362.86 560.161L363.851 559.861C366.375 557.045 366.673 554.527 367.237 550.912Z"/>
	<path fill="#ACC2CC" transform="scale(1.57407 1.57407)" d="M367.237 550.912C368.122 554.239 367.692 557.438 367.938 560.809C367.827 564.303 367.845 567.868 367.49 571.345C366.716 576.719 365.026 580.873 361.184 584.82C361.206 581.123 361.416 577.311 360.764 573.661C360.476 567.072 360.508 560.576 361.054 554.001C361.061 555.418 360.914 557.134 361.344 558.489C361.673 559.527 361.979 559.662 362.86 560.161L363.851 559.861C366.375 557.045 366.673 554.527 367.237 550.912Z"/>
	<defs>
		<linearGradient id="gradient_5" gradientUnits="userSpaceOnUse" x1="490.37631" y1="594.03186" x2="496.38956" y2="611.72644">
			<stop offset="0" stop-color="#D0FFFF"/>
			<stop offset="1" stop-color="white"/>
		</linearGradient>
	</defs>
	<path fill="url(#gradient_5)" transform="scale(1.57407 1.57407)" d="M457.821 582.913L460.354 582.321C465.088 593.137 471.953 602.451 483.256 606.977C489.612 609.522 497.672 610.11 504.063 607.292Q507.795 605.601 511.335 603.539C511.873 603.227 511.629 603.329 512.164 603.179C514.644 602.832 515.72 600.955 518.302 601.255Q517.324 602.409 516.231 603.455Q515.139 604.502 513.944 605.429Q512.75 606.357 511.466 607.157Q510.182 607.956 508.822 608.619C501.084 612.448 492.258 613.263 484.043 610.452C470.854 605.939 463.74 594.773 457.821 582.913Z"/>
	<path fill="#DAFEFF" transform="scale(1.57407 1.57407)" d="M604.251 586.572L606.293 585.126C611.192 595.246 617.536 604.066 628.607 607.861C631.804 608.958 635.241 609.592 638.626 609.398L639.054 610.716C640.091 611.215 641.004 611.326 642.139 611.468C636.465 612.176 630.331 611.75 624.936 609.791C613.756 605.732 609.011 596.6 604.251 586.572Z"/>
	<path fill="#232E3E" transform="scale(1.57407 1.57407)" d="M658.516 617.292L657.012 616.746L656.578 615.76C658.096 613.815 661.978 613.289 664.328 612.993C671.201 612.127 680.177 613.053 685.717 617.441C687.94 619.201 689.51 621.075 690.039 623.887C689.719 625.108 689.788 625.078 688.729 625.751L686.649 625.521C686.426 627.592 685.423 630.688 685.784 632.613C667.854 661.573 639.325 678.386 606.56 685.973Q601.304 687.14 595.991 688.007C581.564 690.213 566.208 691.313 551.655 689.712C548.045 689.593 544.551 690.709 540.715 690.491L541.359 690.31C541.185 690.301 541.011 690.295 540.837 690.282C540.548 690.262 540.26 690.233 539.971 690.212C536.392 689.949 535.014 688.808 531.927 687.393C531.626 687.255 531.308 687.158 530.999 687.041C524.852 685.146 516.07 680.623 509.618 682.263C508.5 680.658 504.817 682.123 502.803 680.811C500.127 676.695 498.871 678.918 495.07 677.346C494.821 676.137 494.593 675.133 494.073 674.003C491.773 672.882 489.28 674.066 486.906 673.436C485.213 672.986 480.792 669.891 480.223 668.208C479.869 667.162 480.504 666.647 479.56 665.802C476.528 663.089 472.955 660.774 469.722 658.285C462.967 653.086 457.278 647.26 452.238 640.377C450.879 638.52 448.703 635.978 447.914 633.83C447.149 631.747 448.303 629.088 449.278 627.251C449.36 627.095 449.446 626.942 449.53 626.787L449.263 626.218L446.316 625.832L446.011 625.173C446.216 624.878 446.377 624.547 446.627 624.289C449.057 621.783 455.294 621.212 458.656 620.766C463.992 620.059 470.272 619.074 475.641 619.794C485.252 621.082 491.658 627.942 499.444 632.924Q506.892 637.653 515.052 641.009C527.107 646 539.779 648.135 552.719 649.054C583.003 651.204 615.907 646.666 641.989 630.232C647.948 626.477 653.209 621.89 658.516 617.292ZM657.261 645.557C659.923 642.97 662.186 640.485 664.212 637.352C662.346 637.63 659.157 638.502 657.461 637.472C656.497 636.886 655.754 635.84 655.088 634.95L654.354 635.312C647.662 638.658 641.813 643.495 635.051 646.685C595.479 665.356 555.501 665.776 514.375 652.403C506.806 649.942 498.716 647.396 491.924 643.181C487.36 640.349 483.282 636.408 478.373 634.199C475.688 632.991 473.411 632.376 470.469 632.708C469.451 634.453 468.477 635.808 468.491 637.878C471.635 646.958 489.828 656.741 498.065 660.762C534.384 678.492 580.516 681.2 618.655 667.901Q621.305 666.981 623.909 665.936Q626.512 664.891 629.063 663.723Q631.614 662.556 634.106 661.268Q636.598 659.98 639.026 658.574Q641.454 657.169 643.812 655.65Q646.171 654.13 648.454 652.5Q650.737 650.871 652.94 649.134Q655.143 647.397 657.261 645.557Z"/>
	<path fill="#4E637A" transform="scale(1.57407 1.57407)" d="M658.516 617.292L657.012 616.746L656.578 615.76C658.096 613.815 661.978 613.289 664.328 612.993C671.201 612.127 680.177 613.053 685.717 617.441C687.94 619.201 689.51 621.075 690.039 623.887C689.719 625.108 689.788 625.078 688.729 625.751L686.649 625.521C686.099 624.083 685.075 622.87 683.874 621.917C677.474 616.844 666.304 616.574 658.516 617.292Z"/>
	<path fill="#DAFEFF" fill-opacity="0.98823529" transform="scale(1.57407 1.57407)" d="M685.784 632.613C686.594 636.81 682.814 641.802 680.562 645.141C663.4 670.576 629.401 684.278 600.071 689.906L596.22 690.629L595.991 688.007Q601.304 687.14 606.56 685.973C639.325 678.386 667.854 661.573 685.784 632.613Z"/>
	<defs>
		<linearGradient id="gradient_6" gradientUnits="userSpaceOnUse" x1="575.70709" y1="687.63733" x2="576.59705" y2="692.75507">
			<stop offset="0" stop-color="#DCFFFF" stop-opacity="0.94509804"/>
			<stop offset="1" stop-color="#DEFFFF"/>
		</linearGradient>
	</defs>
	<path fill="url(#gradient_6)" transform="scale(1.57407 1.57407)" d="M551.655 689.712C566.208 691.313 581.564 690.213 595.991 688.007L596.22 690.629C585.406 692.53 574.307 693.634 563.313 693.367C558.309 693.245 553.2 692.427 548.244 692.385C546.438 692.37 549.368 692.762 546.933 692.359C548.017 691.163 549.993 691.022 551.655 689.712Z"/>
	<path fill="#FEFEFE" transform="scale(1.57407 1.57407)" d="M440.704 373.931C441.431 372.605 442.541 371.67 443.806 370.866C451.121 366.22 461.356 365.319 469.612 367.304C489.741 371.249 506.722 374.935 518.965 392.989C522.303 397.912 524.982 403.219 527.276 408.699C529.847 414.841 542.317 451.734 541.285 455.717C541.032 456.696 540.505 457.181 539.796 457.836C538.702 458.209 537.701 458.482 536.559 458.658Q525.549 459.587 514.51 460.048C504.727 461.366 494.341 460.118 484.476 460.012C466.333 459.816 422.831 462.209 407.915 455.366C406.676 448.941 406.279 440.689 407.561 434.295C407.08 425.079 406.616 415.215 408.555 406.156C412.235 388.966 427.414 382.537 440.704 373.931Z"/>
	<defs>
		<linearGradient id="gradient_7" gradientUnits="userSpaceOnUse" x1="461.58878" y1="465.99652" x2="457.85623" y2="439.86371">
			<stop offset="0" stop-color="#A1BED2"/>
			<stop offset="1" stop-color="#BFD4D9"/>
		</linearGradient>
	</defs>
	<path fill="url(#gradient_7)" transform="scale(1.57407 1.57407)" d="M407.915 455.366C406.676 448.941 406.279 440.689 407.561 434.295L407.593 434.858C407.793 438.822 406.522 443.755 408.986 447.107C412.406 447.405 417.069 444.967 420.872 444.648C428.371 444.018 436.025 445.021 443.466 443.74C448.498 442.874 453.296 440.715 458.279 439.583C473.07 436.224 487.588 440.155 500.239 447.962C504.329 452.258 511.818 455.658 514.51 460.048C504.727 461.366 494.341 460.118 484.476 460.012C466.333 459.816 422.831 462.209 407.915 455.366Z"/>
	<path fill="#DAFEFF" transform="scale(1.57407 1.57407)" d="M488.529 437.151C499.726 440.974 506.663 450.336 517.198 454.829C522.969 457.289 531.462 454.641 536.191 458.357C536.315 458.455 536.436 458.557 536.559 458.658Q525.549 459.587 514.51 460.048C511.818 455.658 504.329 452.258 500.239 447.962C500.014 445.591 497.731 443.533 495.966 442.111C493.673 440.264 491.049 438.669 488.529 437.151Z"/>
	<path fill="#4E637A" transform="scale(1.57407 1.57407)" d="M440.704 373.931C441.431 372.605 442.541 371.67 443.806 370.866C451.121 366.22 461.356 365.319 469.612 367.304C459.704 368.625 450.239 370.983 440.704 373.931Z"/>
	<path fill="#232E3E" transform="scale(1.57407 1.57407)" d="M500.163 393.787C500.355 393.801 500.546 393.814 500.738 393.831C505.051 394.21 507.997 397.152 510.628 400.367C513.947 404.421 517.636 410.571 516.84 415.969C516.408 418.898 514.705 420.058 512.423 421.638C507.478 420.757 503.906 416.312 501.08 412.45C498.526 408.961 494.484 403.061 495.648 398.533C496.313 395.949 498.032 395.114 500.163 393.787Z"/>
	<path fill="#232E3E" transform="scale(1.57407 1.57407)" d="M434.874 419.775C438.115 419.693 441.473 419.827 444.058 422.048C445.624 423.393 446.452 425.261 446.454 427.321C446.457 431.376 443.936 434.124 441.248 436.821C440.494 437.027 439.561 437.203 438.767 437.191C436.182 437.151 433.452 435.899 431.863 433.848C430.21 431.715 429.617 428.799 430.058 426.16C430.578 423.05 432.419 421.514 434.874 419.775Z"/>
	<path fill="#FEFEFE" transform="scale(1.57407 1.57407)" d="M662.878 368.095C666.253 366.228 670.522 365.254 674.304 366.382C676.709 367.098 678.651 368.842 679.795 371.066C694.743 377.565 713.497 384.686 719.941 401.149C723.877 411.203 723.161 430.933 723.122 442.084C723.004 445.207 723.333 452.782 720.885 455.062C714.533 460.975 662.725 458.904 651.408 459.09C639.674 459.284 608.017 461.31 597.834 458.992C597.651 458.95 597.474 458.889 597.294 458.837C594.593 458.668 591.941 458.684 589.735 456.959C589.368 456.334 589.086 455.788 589.06 455.043C588.856 449.239 593.395 441.541 595.203 435.978C598.933 424.503 601.329 412.685 606.448 401.676C608.999 396.189 612.195 391.046 616.235 386.527C628.366 372.959 645.38 369.1 662.878 368.095Z"/>
	<path fill="#ACC2CC" transform="scale(1.57407 1.57407)" d="M723.122 442.084C723.004 445.207 723.333 452.782 720.885 455.062C714.533 460.975 662.725 458.904 651.408 459.09C639.674 459.284 608.017 461.31 597.834 458.992C597.651 458.95 597.474 458.889 597.294 458.837C608.383 459.407 617.626 452.182 626.443 446.417L626.848 446.603L627.069 446.409C623.374 449.668 619.152 452.222 615.536 455.612L615.004 456.116C626.058 452.363 635.8 445.343 647.384 443.046C660.833 440.38 674.745 443.72 688.218 444.68C700.283 445.54 711.333 444.56 723.122 442.084Z"/>
	<path fill="#3C4C6A" transform="scale(1.57407 1.57407)" d="M662.878 368.095C666.253 366.228 670.522 365.254 674.304 366.382C676.709 367.098 678.651 368.842 679.795 371.066Q671.347 369.52 662.878 368.095Z"/>
	<path fill="#232E3E" transform="scale(1.57407 1.57407)" d="M626.989 392.75C629.273 392.988 631.711 393.431 633.47 395.022C634.755 396.185 635.324 397.836 635.269 399.545C635.01 407.578 626.568 415.722 621.197 420.867C617.384 420.637 615.482 419.472 612.661 416.966C615.287 407.123 619.628 399.738 626.989 392.75Z"/>
	<path fill="#232E3E" transform="scale(1.57407 1.57407)" d="M688.763 419.689Q690.711 419.594 692.653 419.775C694.807 419.996 696.969 421.023 698.299 422.775C699.424 424.255 699.769 426.014 699.515 427.836C698.963 431.799 696.323 434.144 693.296 436.422C692.181 436.591 691.166 436.684 690.037 436.579C687.951 436.387 685.97 435.627 684.634 433.952C683.166 432.112 682.906 429.615 683.273 427.357C683.888 423.58 685.787 421.868 688.763 419.689Z"/>
	<defs>
		<linearGradient id="gradient_8" gradientUnits="userSpaceOnUse" x1="642.98895" y1="316.01584" x2="668.65955" y2="413.93396">
			<stop offset="0" stop-color="#7A96A6"/>
			<stop offset="1" stop-color="#B2C7CC"/>
		</linearGradient>
	</defs>
	<path fill="url(#gradient_8)" transform="scale(1.57407 1.57407)" d="M581.55 344.514C582.443 339.132 587.531 334.06 591.834 330.999C596.591 327.616 602.077 325.414 607.907 324.873C619.947 323.756 632.047 327.435 643.946 328.735C659.431 330.426 675.074 330.949 690.431 333.714C705.149 336.364 719.894 340.837 728.787 353.7C735.703 363.703 736.966 376.158 734.774 387.907C734.251 390.707 733.486 393.461 732.899 396.249C732.535 397.192 732.144 398.039 732.035 399.05C731.792 400.82 731.498 402.6 731.393 404.384C726.951 387.583 718.937 379.458 703.975 370.833C684.859 359.812 662.512 355.293 640.95 361.16C624.195 365.719 608.789 375.543 600.183 390.953C596.359 397.799 591.596 406.856 590.706 414.641C590.421 417.711 589.449 420.793 588.247 423.628C586.962 427.695 585.58 431.754 584.408 435.854C574.496 436.184 556.531 435.067 547.934 436.62C545.58 434.537 542.479 418.934 541.547 415.284C547.101 396.708 550.58 372.682 553.896 353.272C554.028 350.907 554.53 348.641 554.999 346.326C564.202 346.255 572.919 350.367 581.55 344.514Z"/>
	<defs>
		<linearGradient id="gradient_9" gradientUnits="userSpaceOnUse" x1="568.19836" y1="432.23853" x2="559.34076" y2="353.85797">
			<stop offset="0" stop-color="#C6D5D8"/>
			<stop offset="1" stop-color="white"/>
		</linearGradient>
	</defs>
	<path fill="url(#gradient_9)" transform="scale(1.57407 1.57407)" d="M581.55 344.514C582.322 351.703 581.604 360.98 580.441 368.082C582.28 376.637 583.802 385.278 585.787 393.798C587.313 400.346 590.78 407.969 590.706 414.641C590.421 417.711 589.449 420.793 588.247 423.628C586.962 427.695 585.58 431.754 584.408 435.854C574.496 436.184 556.531 435.067 547.934 436.62C545.58 434.537 542.479 418.934 541.547 415.284C547.101 396.708 550.58 372.682 553.896 353.272C554.028 350.907 554.53 348.641 554.999 346.326C564.202 346.255 572.919 350.367 581.55 344.514Z"/>
	<path fill="#ACC2CC" transform="scale(1.57407 1.57407)" d="M547.934 436.62C550.769 433.153 552.179 429.037 555.901 426.245C564.69 419.652 578.21 422.008 588.247 423.628C586.962 427.695 585.58 431.754 584.408 435.854C574.496 436.184 556.531 435.067 547.934 436.62Z"/>
	<path fill="#AAB1BA" transform="scale(1.57407 1.57407)" d="M581.55 344.514C582.322 351.703 581.604 360.98 580.441 368.082C579.314 362.836 578.643 357.651 578.156 352.309C573.972 353.432 569.876 355.008 565.785 356.433C561.854 355.216 557.967 353.941 553.896 353.272C554.028 350.907 554.53 348.641 554.999 346.326C564.202 346.255 572.919 350.367 581.55 344.514Z"/>
	<path fill="#FEFEFE" transform="scale(1.57407 1.57407)" d="M549.918 446.674C560.074 445.707 571.145 445.376 581.273 446.663C579.662 450.312 576.029 456.728 577.446 460.843C578.044 462.582 578.986 463.331 580.619 464.031C595.433 470.379 672.48 468.187 692.535 466.998C698.622 466.637 715.513 463.996 720.011 464.713C720.33 467.685 720.847 469.457 722.731 471.803L722.227 472.022C721.048 472.544 720.136 472.887 719.327 473.946C719.443 474.589 719.306 474.41 719.96 474.871C721.24 475.774 722.448 475.839 723.92 475.478C725.726 475.035 726.842 474.394 728.73 475.1C720.681 480.695 702.68 479.919 692.799 480.066C689.718 481.75 679.243 481.388 675.196 482.305L674.696 482.263L671.165 485.714C667.772 489.538 664.249 493.396 660.3 496.658C645.164 502.014 612.487 498.984 595.457 498.939C569.912 498.872 544.322 498.659 518.781 498.981C501.903 499.194 485.072 501.015 468.192 501.012C464.959 496.247 461.727 491.076 456.75 487.976L454.009 485.387C452.382 484.959 451.026 483.781 449.668 482.824C454.938 480.391 459.001 479.961 464.721 480.114L465.826 479.677L465.717 479.247C464.092 479.107 462.586 478.894 461.005 478.482L460.561 478.363C453.505 477.614 446.125 478.846 439.028 478.828C419.767 478.779 401.474 477.219 382.734 472.746C389.372 470.786 396.295 475.172 402.997 475.167C404.214 475.166 405.19 474.904 406.062 474.007C406.914 473.131 407.041 473.165 406.986 471.902C405.338 470.319 402.588 469.994 400.572 468.955C399.113 468.203 398.534 467.701 398.004 466.167C398.524 464.538 399.604 463.794 400.859 462.727L401.434 462.244C399.5 460.478 396.12 457.945 395.971 455.131C395.881 453.442 396.455 452.553 397.43 451.266C397.526 454.857 397.961 457.745 400.594 460.399C403.484 463.311 407.808 464.317 411.709 465.02C435.929 469.383 465.246 467.573 490.059 467.29C504.101 467.129 518.198 467.717 532.219 467.268C538.437 467.068 547.247 467.6 551.889 462.817C553.028 461.644 553.946 460.3 554.853 458.946Q552.603 452.723 549.918 446.674ZM556.39 453.359C556.947 451.87 557.618 451.023 557.094 449.489C556.383 449.119 555.689 448.729 554.943 448.432C554.23 449.896 554.104 450.022 554.363 451.609C555.041 452.307 555.549 452.855 556.39 453.359Z"/>
	<path fill="#FEFEFE" transform="scale(1.57407 1.57407)" d="M517.139 479.85C535.431 479.944 553.544 482.469 571.758 482.647C583.819 482.765 595.65 481.22 607.669 480.664C619.367 480.122 631.155 480.583 642.866 480.422C651.392 480.305 667.243 477.271 674.696 482.263L671.165 485.714C667.772 489.538 664.249 493.396 660.3 496.658C645.164 502.014 612.487 498.984 595.457 498.939C569.912 498.872 544.322 498.659 518.781 498.981C501.903 499.194 485.072 501.015 468.192 501.012C464.959 496.247 461.727 491.076 456.75 487.976L454.009 485.387C452.382 484.959 451.026 483.781 449.668 482.824C454.938 480.391 459.001 479.961 464.721 480.114C480.841 481.093 501.079 481.19 517.139 479.85Z"/>
	<path fill="#6E93B0" transform="scale(1.57407 1.57407)" d="M517.139 479.85C535.431 479.944 553.544 482.469 571.758 482.647C583.819 482.765 595.65 481.22 607.669 480.664C619.367 480.122 631.155 480.583 642.866 480.422C651.392 480.305 667.243 477.271 674.696 482.263L671.165 485.714C670.721 485.278 670.368 484.978 669.746 484.774C664.355 483.008 649.923 485.958 643.657 486.443C639.399 486.774 635.074 486.773 630.803 486.764C619.846 486.743 608.896 485.894 597.944 485.883C592.142 485.877 586.349 486.435 580.548 486.502C556.144 486.785 531.538 486.457 507.128 486.058C492.357 485.816 477.554 484.325 462.813 484.344C459.984 484.347 456.611 484.179 454.009 485.387C452.382 484.959 451.026 483.781 449.668 482.824C454.938 480.391 459.001 479.961 464.721 480.114C480.841 481.093 501.079 481.19 517.139 479.85Z"/>
	<path fill="#3C4C6A" transform="scale(1.57407 1.57407)" d="M520.666 478.274L627.757 478.655C642.443 478.772 662.121 477.75 676.286 479.351C681.778 479.678 687.297 480.079 692.799 480.066C689.718 481.75 679.243 481.388 675.196 482.305L674.696 482.263C667.243 477.271 651.392 480.305 642.866 480.422C631.155 480.583 619.367 480.122 607.669 480.664C595.65 481.22 583.819 482.765 571.758 482.647C553.544 482.469 535.431 479.944 517.139 479.85C518.461 479.623 519.769 479.387 521.077 479.084L520.666 478.274Z"/>
	<path fill="#232E3E" transform="scale(1.57407 1.57407)" d="M460.561 478.363Q490.613 477.892 520.666 478.274L521.077 479.084C519.769 479.387 518.461 479.623 517.139 479.85C501.079 481.19 480.841 481.093 464.721 480.114L465.826 479.677L465.717 479.247C464.092 479.107 462.586 478.894 461.005 478.482L460.561 478.363Z"/>
	<path fill="#FEFEFE" fill-opacity="0.93725491" transform="scale(1.57407 1.57407)" d="M554.943 448.432C555.689 448.729 556.383 449.119 557.094 449.489C557.618 451.023 556.947 451.87 556.39 453.359C555.549 452.855 555.041 452.307 554.363 451.609C554.104 450.022 554.23 449.896 554.943 448.432Z"/>
	<defs>
		<linearGradient id="gradient_10" gradientUnits="userSpaceOnUse" x1="568.55029" y1="358.59387" x2="560.24231" y2="265.98297">
			<stop offset="0" stop-color="#4489C3"/>
			<stop offset="1" stop-color="#60C0FF"/>
		</linearGradient>
	</defs>
	<path fill="url(#gradient_10)" transform="scale(1.57407 1.57407)" d="M383.621 307.945C386.205 306.483 388.653 304.16 390.994 302.302C396.846 297.656 402.639 292.692 409.071 288.867C421.952 281.206 437.793 276.914 452.582 275.128C465.585 273.557 479.065 274.191 492.142 274.201L563.572 274.576L637.106 274.626C649.42 274.631 662.031 273.733 674.3 274.894C677.774 275.223 680.963 277.362 684.351 278.147C689.263 279.284 694.461 278.712 699.443 279.956C709.5 282.468 718.984 287.204 729.156 289.775C742.545 294.298 752.138 312.826 758.082 324.831C760.95 330.621 764.8 338.837 764.531 345.431C763.059 343.793 761.773 342.254 759.799 341.192L758.667 341.273C757.689 342.931 757.804 344.162 757.979 346.039C757.628 347.036 757.931 346.597 756.987 347.296C755.6 346.061 755.164 343.87 754.538 342.137C753.16 342.732 752.951 343.069 751.542 342.62C750.052 338.17 748.275 332.952 745.605 329.099C736.677 319.978 725.862 311.592 713.613 307.499C687.638 297.783 661.146 299.041 633.943 297.98C625.708 297.658 617.488 296.738 609.254 296.513C583.064 295.796 556.864 296.215 530.672 296.141C510.282 296.084 489.892 295.241 469.493 295.147C440.161 295.933 411.954 301.453 390.823 323.481C384.721 329.841 380.611 337.51 378.447 346.05L374.194 345.959Q376.017 341.664 377.675 337.302C374.255 338.82 372.484 341.411 370.345 344.334C370.544 341.915 370.634 339.678 370.433 337.25C373.553 329.077 379.931 323.231 381.344 314.081L380.706 313.934L379.689 314.796L378.996 314.596L378.95 313.683C380.139 311.227 381.037 309.018 383.621 307.945Z"/>
	<path fill="#3C4C6A" transform="scale(1.57407 1.57407)" d="M487.399 294.457C519.788 295.647 552.379 295.496 584.788 295.175Q604.24 294.985 623.686 294.434C652.951 293.544 686.009 291.187 713.406 303.36C712.88 304.744 713.336 306.099 713.613 307.499C687.638 297.783 661.146 299.041 633.943 297.98C625.708 297.658 617.488 296.738 609.254 296.513C583.064 295.796 556.864 296.215 530.672 296.141C510.282 296.084 489.892 295.241 469.493 295.147C470.895 293.776 484.628 294.465 487.399 294.457Z"/>
	<path fill="#5B5B63" transform="scale(1.57407 1.57407)" d="M377.675 337.302C380.888 330.602 385.879 325.267 391.259 320.233C419.795 293.529 450.622 293.366 487.399 294.457C484.628 294.465 470.895 293.776 469.493 295.147C440.161 295.933 411.954 301.453 390.823 323.481C384.721 329.841 380.611 337.51 378.447 346.05L374.194 345.959Q376.017 341.664 377.675 337.302Z"/>
	<path fill="#232E3E" transform="scale(1.57407 1.57407)" d="M713.613 307.499C713.336 306.099 712.88 304.744 713.406 303.36C725.613 308.622 739.126 316.248 745.732 328.355L745.605 329.099C736.677 319.978 725.862 311.592 713.613 307.499Z"/>
	<path fill="#3C4C6A" transform="scale(1.57407 1.57407)" d="M745.732 328.355C749.435 332.615 752.768 336.687 754.538 342.137C753.16 342.732 752.951 343.069 751.542 342.62C750.052 338.17 748.275 332.952 745.605 329.099L745.732 328.355Z"/>
	<defs>
		<linearGradient id="gradient_11" gradientUnits="userSpaceOnUse" x1="473.04517" y1="327.1846" x2="476.6445" y2="414.01981">
			<stop offset="0" stop-color="#829CAB"/>
			<stop offset="1" stop-color="#B9C9CA"/>
		</linearGradient>
	</defs>
	<path fill="url(#gradient_11)" transform="scale(1.57407 1.57407)" d="M511.364 325.312C521.06 323.398 533.048 324.222 541.435 329.838C547.591 333.961 551.588 339.884 554.999 346.326C554.53 348.641 554.028 350.907 553.896 353.272C550.58 372.682 547.101 396.708 541.547 415.284C538.436 406.575 535.226 397.733 530.518 389.74C521.451 374.348 505.707 365.017 488.705 360.622C467.882 355.239 445.985 359.287 427.584 370.138C415.593 377.209 402.556 387.623 398.963 401.708L398.371 400.478L397.642 400.722C397.168 402.066 396.782 403.304 396.512 404.71C396.283 401.625 397.776 397.768 396.811 395.006C395.921 390.849 395.062 386.46 394.712 382.226C393.818 371.439 396.464 359.757 403.624 351.414C419.623 332.769 458.045 331.881 480.946 329.277C490.906 328.144 500.891 326.133 510.864 325.352L511.364 325.312Z"/>
	<path fill="#6E93B0" transform="scale(1.57407 1.57407)" d="M510.864 325.352L511.364 325.312C513.051 325.56 514.396 325.354 516.052 326.019L516.046 326.591C515.392 326.692 514.662 326.845 513.992 326.83C512.437 326.797 511.937 326.413 510.864 325.352Z"/>
	<defs>
		<linearGradient id="gradient_12" gradientUnits="userSpaceOnUse" x1="856.15771" y1="572.0293" x2="803.69122" y2="558.95862">
			<stop offset="0" stop-color="#FCFCFB" stop-opacity="0.77254903"/>
			<stop offset="1" stop-color="#FDFDFC" stop-opacity="0.84705883"/>
		</linearGradient>
	</defs>
	<path fill="url(#gradient_12)" transform="scale(1.57407 1.57407)" d="M843.156 528.198C843.804 529.9 843.537 532.34 843.774 534.199C845.367 535.709 847.366 537.615 849.549 538.138C850.424 538.347 850.497 538.013 851.152 537.531C852.226 532.503 849.665 526.692 850.366 521.494C850.56 520.055 850.89 520.001 851.997 519.198Q853.35 529.975 853.288 540.837C852.942 558.52 857.748 595.349 851.432 610.559C849.683 609.347 847.874 611.594 845.616 610.614C843.527 609.708 843.582 607.52 840.677 607.402C839.836 608.382 839.802 609.525 839.622 610.754C839.437 602.279 839.872 593.824 839.886 585.352C839.904 574.564 839.575 563.759 839.52 552.967C829.04 558.495 821.206 558.615 809.631 558.405C809.218 557.626 808.823 556.837 808.406 556.061C805.857 551.32 806.743 546.799 805.216 541.879L807.108 540.419C809.505 541.294 812.124 542.553 814.604 543.071C819.157 544.516 823.586 545.295 828.316 544.113C833.889 542.722 837.573 539.019 840.497 534.248L842.827 528.238L843.156 528.198Z"/>
	<path fill="#ACC2CC" transform="scale(1.57407 1.57407)" d="M809.631 558.405C821.206 558.615 829.04 558.495 839.52 552.967C839.575 563.759 839.904 574.564 839.886 585.352C839.872 593.824 839.437 602.279 839.622 610.754C837.22 612.86 835.19 615.173 833.111 617.589L832.735 617.441L832.134 616.522C829.816 615.746 825.006 616.876 822.364 617.101L819.031 618.424C818.167 618.148 817.038 617.894 816.264 617.435C814.778 616.554 814.757 615.286 814.315 613.754C811.765 592.422 817.411 581.487 809.631 558.405ZM835.264 567.725C835.935 565.869 836.781 563.811 835.819 561.88C835.016 560.268 833.328 559.71 831.747 559.201C830.807 560.664 830.033 561.667 830.065 563.485C830.712 565.36 831.717 566.085 833.445 566.924Q834.343 567.351 835.264 567.725Z"/>
	<path fill="#FEFEFE" transform="scale(1.57407 1.57407)" d="M814.315 613.754L815.046 613.012C817.512 614.375 819.672 616.214 822.364 617.101L819.031 618.424C818.167 618.148 817.038 617.894 816.264 617.435C814.778 616.554 814.757 615.286 814.315 613.754Z"/>
	<path fill="#AAB1BA" fill-opacity="0.97254902" transform="scale(1.57407 1.57407)" d="M831.747 559.201C833.328 559.71 835.016 560.268 835.819 561.88C836.781 563.811 835.935 565.869 835.264 567.725Q834.343 567.351 833.445 566.924C831.717 566.085 830.712 565.36 830.065 563.485C830.033 561.667 830.807 560.664 831.747 559.201Z"/>
	<defs>
		<linearGradient id="gradient_13" gradientUnits="userSpaceOnUse" x1="738.14532" y1="383.6106" x2="764.69897" y2="393.30011">
			<stop offset="0" stop-color="#384F76"/>
			<stop offset="1" stop-color="#749BAD"/>
		</linearGradient>
	</defs>
	<path fill="url(#gradient_13)" transform="scale(1.57407 1.57407)" d="M754.538 342.137C755.164 343.87 755.6 346.061 756.987 347.296C757.931 346.597 757.628 347.036 757.979 346.039C758.172 346.892 758.156 347.069 757.908 347.897C757.653 348.748 761.572 377.877 761.996 379.533C761.37 382.899 760.108 386.944 760.678 390.33C760.891 390.525 761.107 390.716 761.316 390.915C763.476 392.961 762.478 395.088 765.309 396.721C764.732 407.978 756.051 420.955 747.892 428.285C745.38 430.541 741.183 434.453 737.585 434.164C736.067 434.043 734.877 433.519 733.94 432.305C733.232 431.387 733.408 431.617 732.912 430.587C733.315 425.346 729.506 416.501 732.063 411.944C732.795 413.973 733.862 415.773 734.927 417.636C739.341 414.581 742.111 410.734 744.548 406.028C752.235 391.181 755.099 378.454 754.46 361.766C754.21 355.243 753.549 348.854 751.542 342.62C752.951 343.069 753.16 342.732 754.538 342.137Z"/>
	<path fill="#ACC2CC" transform="scale(1.57407 1.57407)" d="M755.373 401.437C755.448 401.657 755.529 401.876 755.598 402.098C755.768 402.643 755.826 403.003 756.049 403.499C756.711 404.964 758.126 406.665 759.586 407.309L760.581 406.688C761.735 404.195 761.805 402.147 762.448 399.595C762.87 397.919 763.951 397.542 765.309 396.721C764.732 407.978 756.051 420.955 747.892 428.285C745.38 430.541 741.183 434.453 737.585 434.164C736.067 434.043 734.877 433.519 733.94 432.305C733.232 431.387 733.408 431.617 732.912 430.587C734.836 428.992 737.068 427.732 739.044 426.178C747.797 419.294 752.01 411.932 755.373 401.437Z"/>
	<path fill="#4E637A" transform="scale(1.57407 1.57407)" d="M801.744 503.542C808.277 500.874 813.176 505.909 818.786 506.781C819.955 506.962 821.391 505.983 822.344 505.437C824.001 506.674 824.477 508.279 824.756 510.258C824.84 510.85 824.89 511.39 824.885 511.986C824.557 512.329 824.217 512.659 823.865 512.978C814.17 521.77 794.458 519.007 782.483 518.293C783.278 514.92 783.974 511.214 784.002 507.75L784.576 505.716C788.113 502.472 796.963 503.54 801.744 503.542Z"/>
	<path fill="#6E93B0" transform="scale(1.57407 1.57407)" d="M801.744 503.542C808.277 500.874 813.176 505.909 818.786 506.781C819.955 506.962 821.391 505.983 822.344 505.437C824.001 506.674 824.477 508.279 824.756 510.258C824.84 510.85 824.89 511.39 824.885 511.986C816.664 512.31 808.385 511.137 800.199 510.55C796.06 510.254 791.098 510.473 787.094 509.524C786.179 509.307 785.488 508.793 784.739 508.253L784.002 507.75L784.576 505.716C788.113 502.472 796.963 503.54 801.744 503.542Z"/>
	<path fill="#FEFEFE" transform="scale(1.57407 1.57407)" d="M784.002 507.75L784.576 505.716C788.113 502.472 796.963 503.54 801.744 503.542L799.76 505.116C800.094 505.903 799.875 505.836 800.623 506.113C803.425 507.149 808.137 506.887 811.235 507.308C802.271 508.586 793.728 508.287 784.739 508.253L784.002 507.75Z"/>
	<path fill="#4E637A" transform="scale(1.57407 1.57407)" d="M370.433 337.25C370.634 339.678 370.544 341.915 370.345 344.334C372.484 341.411 374.255 338.82 377.675 337.302Q376.017 341.664 374.194 345.959L378.447 346.05C376.934 354.122 375.353 365.381 376.741 373.441C373.746 378.646 377.52 390.994 372.845 394.284L371.315 394.365Q371.33 392.8 371.262 391.236Q371.193 389.672 371.041 388.114Q370.889 386.556 370.653 385.008Q370.418 383.461 370.099 381.928Q369.781 380.395 369.381 378.882Q368.981 377.368 368.501 375.879Q368.021 374.389 367.461 372.927Q366.901 371.465 366.264 370.035L365.209 369.76L363.734 371.137L362.367 374.513C361.287 363.321 363.583 351.721 365.207 340.665C365.358 340.66 365.51 340.669 365.66 340.65C367.794 340.382 369.064 338.731 370.433 337.25Z"/>
	<path fill="#6E93B0" transform="scale(1.57407 1.57407)" d="M370.433 337.25C370.634 339.678 370.544 341.915 370.345 344.334C372.484 341.411 374.255 338.82 377.675 337.302Q376.017 341.664 374.194 345.959C370.049 354.606 371.765 360.384 369.477 368.479L367.925 371.511L367.522 371.381L367.105 368.344L366.561 367.958C365.78 368.625 365.614 368.769 365.209 369.76L363.734 371.137L362.367 374.513C361.287 363.321 363.583 351.721 365.207 340.665C365.358 340.66 365.51 340.669 365.66 340.65C367.794 340.382 369.064 338.731 370.433 337.25Z"/>
	<path fill="#FEFEFE" transform="scale(1.57407 1.57407)" d="M363.734 371.137C363.651 370.221 363.671 369.391 363.773 368.475C364.002 366.429 364.648 361.693 366.3 360.426L366.797 360.554C368.264 362.531 368.316 365.669 369.283 368.019C369.346 368.173 369.412 368.325 369.477 368.479L367.925 371.511L367.522 371.381L367.105 368.344L366.561 367.958C365.78 368.625 365.614 368.769 365.209 369.76L363.734 371.137Z"/>
	<path fill="#FEFEFE" fill-opacity="0.47843137" transform="scale(1.57407 1.57407)" d="M397.754 450.198L397.43 451.266C396.455 452.553 395.881 453.442 395.971 455.131C396.12 457.945 399.5 460.478 401.434 462.244L400.859 462.727C399.604 463.794 398.524 464.538 398.004 466.167C398.534 467.701 399.113 468.203 400.572 468.955C402.588 469.994 405.338 470.319 406.986 471.902C407.041 473.165 406.914 473.131 406.062 474.007C405.19 474.904 404.214 475.166 402.997 475.167C396.295 475.172 389.372 470.786 382.734 472.746C381.427 472.564 380.431 472.181 379.219 471.69L379.894 471.303L379.893 470.125C379.019 469.218 378.441 468.425 377.842 467.317C377.859 465.231 378.008 463.901 376.534 462.291C375.282 462.142 374.235 462.018 373.047 461.565L372.689 460.409C373.565 457.784 376.465 456.609 378.748 455.413C379.361 454.041 380.047 452.197 381.311 451.308C384.633 448.972 389.99 452.45 393.652 452.575C395.654 452.643 396.389 451.464 397.754 450.198Z"/>
	<defs>
		<linearGradient id="gradient_14" gradientUnits="userSpaceOnUse" x1="385.21783" y1="415.03705" x2="370.42273" y2="382.19852">
			<stop offset="0" stop-color="#53698B"/>
			<stop offset="1" stop-color="#85A6C2"/>
		</linearGradient>
	</defs>
	<path fill="url(#gradient_14)" transform="scale(1.57407 1.57407)" d="M376.741 373.441C378.202 381.323 380.317 388.996 382.037 396.813C383.019 400.257 384.15 403.394 385.684 406.63C386.833 409.224 387.864 412.213 389.994 414.168C389.849 414.255 389.707 414.349 389.558 414.431C387.307 415.659 386.092 415.416 383.663 414.842C382.404 415.286 381.35 416.285 380.709 417.468C380.302 418.22 380.28 418.871 380.156 419.695C380.012 420.658 379.713 421.276 379.272 422.13C377.908 420.711 377.622 420.278 377.501 418.304L377.775 418.512L377.924 418.319C377.152 415.535 376.226 410.713 374.086 408.765C372.838 408.393 371.901 408.111 370.812 407.366C370.376 406.107 370.216 405.079 370.096 403.768L371.231 402.791C372.078 400.691 371.381 396.728 371.315 394.365L372.845 394.284C377.52 390.994 373.746 378.646 376.741 373.441Z"/>
	<path fill="#4E637A" transform="scale(1.57407 1.57407)" d="M391.184 411.323L395.03 412.582C395.033 412.745 395.04 412.908 395.04 413.071C395.039 415.11 394.496 416.394 393.579 418.185C393.81 419.677 394.283 419.96 395.494 420.826C395.954 421.155 396.097 421.228 396.536 421.486L396.599 422.747C396.581 426.502 396.833 430.411 395.053 433.832C394.244 434.353 394.341 434.515 393.335 434.351Q392.518 434.11 391.734 433.78Q390.949 433.449 390.206 433.033Q389.463 432.616 388.771 432.12Q388.08 431.623 387.448 431.052C386.444 430.142 385.88 429.166 385.862 427.809C385.843 426.438 385.006 425.703 384.099 424.679C383.166 423.625 382.506 422.62 381.083 422.505L380.597 423.874C379.926 423.542 379.658 422.76 379.272 422.13C379.713 421.276 380.012 420.658 380.156 419.695C380.28 418.871 380.302 418.22 380.709 417.468C381.35 416.285 382.404 415.286 383.663 414.842C386.092 415.416 387.307 415.659 389.558 414.431C389.707 414.349 389.849 414.255 389.994 414.168L390.944 411.467L391.184 411.323Z"/>
	<path fill="#3C4C6A" transform="scale(1.57407 1.57407)" d="M396.599 422.747C396.581 426.502 396.833 430.411 395.053 433.832C394.244 434.353 394.341 434.515 393.335 434.351C392.8 430.185 389.029 427.295 386.194 424.534C389.669 423.746 393.058 423.144 396.599 422.747Z"/>
	<defs>
		<linearGradient id="gradient_15" gradientUnits="userSpaceOnUse" x1="845.01685" y1="524.71973" x2="834.13696" y2="521.83423">
			<stop offset="0" stop-color="#FCFDFC" stop-opacity="0.80784315"/>
			<stop offset="1" stop-color="#FEFDFD" stop-opacity="0.84313726"/>
		</linearGradient>
	</defs>
	<path fill="url(#gradient_15)" transform="scale(1.57407 1.57407)" d="M837.284 503.121C838.856 502.094 840.515 500.54 842.418 500.722C843.048 501.658 842.893 501.822 842.671 502.89C842.013 506.053 840.496 508.718 840.316 512.024C840.882 513.367 841.023 514.564 842.519 515.126C843.527 515.505 844.846 515.61 845.916 515.792C847.149 517.002 847.146 517.88 847.175 519.576C847.254 524.275 845.353 524.641 843.156 528.198L842.827 528.238L842.484 526.615C841.306 526.3 841.718 526.157 840.821 526.705C839.005 527.815 837.452 530.378 836.263 532.153C834.428 533.53 831.614 536.065 829.267 535.941C828.696 534.255 829.976 532.035 830.147 530.23C828.695 529.131 826.652 528.995 824.883 528.625C826.413 528.247 827.889 527.655 829.311 526.976C833.56 524.945 837.029 521.262 838.53 516.763C840.025 512.283 839.349 507.308 837.284 503.121Z"/>
	<path fill="#4E637A" transform="scale(1.57407 1.57407)" d="M853.288 540.837C860.018 552.088 858.311 593.614 855.088 606.8C854.248 610.236 852.9 614.919 849.583 616.725C849.292 616.883 848.993 617.026 848.698 617.177L851.432 610.559C857.748 595.349 852.942 558.52 853.288 540.837Z"/>
	<path fill="#FEFEFE" fill-opacity="0.66274512" transform="scale(1.57407 1.57407)" d="M840.316 512.024C841.231 512.411 842.336 512.401 843.323 512.503C847.209 510.648 844.621 503.566 847.193 500.271C849.651 506.506 851.44 512.496 851.997 519.198C850.89 520.001 850.56 520.055 850.366 521.494C849.665 526.692 852.226 532.503 851.152 537.531C850.497 538.013 850.424 538.347 849.549 538.138C847.366 537.615 845.367 535.709 843.774 534.199C843.537 532.34 843.804 529.9 843.156 528.198C845.353 524.641 847.254 524.275 847.175 519.576C847.146 517.88 847.149 517.002 845.916 515.792C844.846 515.61 843.527 515.505 842.519 515.126C841.023 514.564 840.882 513.367 840.316 512.024ZM848.721 533.411C849.837 532.578 850.353 531.987 850.557 530.542C850.779 528.968 850.353 528.031 849.691 526.678C849.062 526.355 848.521 526.05 847.834 525.874C846.534 526.941 845.57 527.631 845.021 529.297C845.506 531.396 846.55 532.053 848.312 533.159L848.721 533.411Z"/>
	<path fill="#FEFEFE" fill-opacity="0.50588238" transform="scale(1.57407 1.57407)" d="M847.834 525.874C848.521 526.05 849.062 526.355 849.691 526.678C850.353 528.031 850.779 528.968 850.557 530.542C850.353 531.987 849.837 532.578 848.721 533.411L848.312 533.159C846.55 532.053 845.506 531.396 845.021 529.297C845.57 527.631 846.534 526.941 847.834 525.874Z"/>
	<path fill="#ACC2CC" fill-opacity="0.98431373" transform="scale(1.57407 1.57407)" d="M365.207 340.665C367.662 326.635 376.72 311.816 385.208 300.549C385.308 303.243 384.101 305.361 383.621 307.945C381.037 309.018 380.139 311.227 378.95 313.683L378.996 314.596L379.689 314.796L380.706 313.934L381.344 314.081C379.931 323.231 373.553 329.077 370.433 337.25C369.064 338.731 367.794 340.382 365.66 340.65C365.51 340.669 365.358 340.66 365.207 340.665Z"/>
	<path fill="#AAB1BA" fill-opacity="0.98039216" transform="scale(1.57407 1.57407)" d="M824.883 528.625C826.652 528.995 828.695 529.131 830.147 530.23C829.976 532.035 828.696 534.255 829.267 535.941C831.614 536.065 834.428 533.53 836.263 532.153C837.703 532.803 839.152 533.413 840.497 534.248C837.573 539.019 833.889 542.722 828.316 544.113C823.586 545.295 819.157 544.516 814.604 543.071C816.692 541.645 820.295 542.134 821.733 540.359L820.693 539.795L823.935 538.544C824.547 538.125 824.806 537.806 825.09 537.113C826.396 533.925 826.205 531.747 824.883 528.625Z"/>
	<defs>
		<linearGradient id="gradient_16" gradientUnits="userSpaceOnUse" x1="696.74908" y1="492.48782" x2="696.53687" y2="489.94992">
			<stop offset="0" stop-color="#DFFFFF" stop-opacity="0.96078432"/>
			<stop offset="1" stop-color="#DCFFFF"/>
		</linearGradient>
	</defs>
	<path fill="url(#gradient_16)" transform="scale(1.57407 1.57407)" d="M678.695 490.546C690.872 490.1 703.042 489.697 715.182 488.602L716.612 489.213L716.271 489.774C714.211 489.792 712.126 489.508 710.44 490.863C710.182 491.576 709.974 492.275 709.771 493.004C701.181 493.036 692.339 493.509 683.781 492.921Q683.028 492.092 682.248 491.289C680.899 491.759 680.519 492.151 679.823 493.37C678.756 495.239 676.831 497.253 674.715 497.92C673.962 498.157 673.861 498.133 673.167 498.189C672.71 497.902 672.243 497.666 671.874 497.268C674.269 495.177 676.46 492.808 678.695 490.546Z"/>
	<path fill="#FEFEFE" fill-opacity="0.54509807" transform="scale(1.57407 1.57407)" d="M396.811 395.006C397.776 397.768 396.283 401.625 396.512 404.71L396.329 406.074C395.014 405.579 394.729 405.459 393.358 405.674C392.328 406.832 392.445 407.413 392.101 408.847C391.997 409.281 391.747 409.792 391.585 410.21C391.442 410.578 391.317 410.952 391.184 411.323L390.944 411.467C390.734 409.983 390.555 408.642 390.772 407.141C390.997 405.592 391.589 403.558 391.016 402.112L389.775 402.146C387.954 403.273 386.909 404.927 385.684 406.63C384.15 403.394 383.019 400.257 382.037 396.813C384.994 394.997 391.198 396.974 396.811 395.006Z"/>
	<path fill="#FEFEFE" fill-opacity="0.59607846" transform="scale(1.57407 1.57407)" d="M841.064 493.097C842.768 493.369 843.496 493.625 844.593 495.028C845.757 496.517 846.52 498.517 847.193 500.271C844.621 503.566 847.209 510.648 843.323 512.503C842.336 512.401 841.231 512.411 840.316 512.024C840.496 508.718 842.013 506.053 842.671 502.89C842.893 501.822 843.048 501.658 842.418 500.722C840.515 500.54 838.856 502.094 837.284 503.121C836.87 500.556 835.072 498.924 834.404 496.406L835.055 495.621C837.072 495.121 839.079 495.394 841.127 495.544L841.671 495.039L840.581 494.057L841.064 493.097Z"/>
	<path fill="#FEFEFE" fill-opacity="0.3137255" transform="scale(1.57407 1.57407)" d="M839.622 610.754C839.802 609.525 839.836 608.382 840.677 607.402C843.582 607.52 843.527 609.708 845.616 610.614C847.874 611.594 849.683 609.347 851.432 610.559L848.698 617.177L848.263 617.776L847.838 616.747C843.057 613.782 840.195 620.382 833.111 617.589C835.19 615.173 837.22 612.86 839.622 610.754Z"/>
	<path fill="#DAFEFF" fill-opacity="0.94901961" transform="scale(1.57407 1.57407)" d="M734.071 485.559C740.165 484.498 746.102 482.642 752.046 480.956L755.487 481.633L755.96 482.467L755.282 484.361C749.733 485.846 743.834 487.088 738.43 489.003L735.27 489.675C735.367 487.498 735.166 487.325 734.071 485.559Z"/>
	<defs>
		<linearGradient id="gradient_17" gradientUnits="userSpaceOnUse" x1="722.9743" y1="488.11395" x2="722.43414" y2="490.84204">
			<stop offset="0" stop-color="#DFF" stop-opacity="0.82745099"/>
			<stop offset="1" stop-color="#DCFFFF" stop-opacity="0.86666667"/>
		</linearGradient>
	</defs>
	<path fill="url(#gradient_17)" transform="scale(1.57407 1.57407)" d="M715.182 488.602C721.368 487.277 727.824 486.719 734.071 485.559C735.166 487.325 735.367 487.498 735.27 489.675C728.632 491.035 721.721 492.457 714.934 492.629L714.741 491.99C716.012 490.922 718.206 490.933 719.865 490.685C718.68 490.084 717.566 489.952 716.271 489.774L716.612 489.213L715.182 488.602Z"/>
	<path fill="#FEFEFE" fill-opacity="0.16862746" transform="scale(1.57407 1.57407)" d="M732.899 396.249C733.955 395.084 734.172 394.373 735.857 394.314C737.088 394.271 738.54 394.63 739.503 395.425C740.831 396.52 741.291 398.338 741.302 399.988C741.308 400.787 741.08 401.437 740.793 402.168C739.945 402.823 739.362 403.001 738.351 403.243C737.108 403.54 736.679 403.823 735.815 404.801C735.618 405.024 735.416 405.241 735.221 405.464C735.074 405.633 734.932 405.806 734.788 405.977L733.904 405.965C732.309 403.698 732.586 401.589 732.035 399.05C732.144 398.039 732.535 397.192 732.899 396.249Z"/>
	<path fill="#DAFEFF" fill-opacity="0.98823529" transform="scale(1.57407 1.57407)" d="M752.046 480.956C755.467 479.943 767.407 474.411 769.999 475.04C769.968 476.869 770.372 478.586 769.033 480.014C766.303 482.926 759.06 483.415 755.282 484.361L755.96 482.467L755.487 481.633L752.046 480.956Z"/>
	<defs>
		<linearGradient id="gradient_18" gradientUnits="userSpaceOnUse" x1="829.99695" y1="621.50879" x2="834.172" y2="620.7431">
			<stop offset="0" stop-color="white" stop-opacity="0.070588239"/>
			<stop offset="1" stop-color="white" stop-opacity="0.11764706"/>
		</linearGradient>
	</defs>
	<path fill="url(#gradient_18)" transform="scale(1.57407 1.57407)" d="M833.111 617.589C840.195 620.382 843.057 613.782 847.838 616.747L848.263 617.776L846.707 619.218L845.911 618.743C840.967 619.916 837.006 623.116 832.308 624.287C830.822 624.657 830.195 624.449 828.879 623.755C828.579 622.186 829.347 620.914 829.876 619.428L829.115 618.813C830.209 618.243 831.57 617.878 832.735 617.441L833.111 617.589Z"/>
	<path fill="#ACC2CC" transform="scale(1.57407 1.57407)" d="M809.32 533.933C811.568 536.76 813.952 539.526 817.793 539.872C818.762 539.96 819.727 539.887 820.693 539.795L821.733 540.359C820.295 542.134 816.692 541.645 814.604 543.071C812.124 542.553 809.505 541.294 807.108 540.419L807.127 540.125C806.586 538.59 804.782 537.452 803.539 536.431C805.429 535.466 807.336 534.684 809.32 533.933Z"/>
	<path fill="#FEFEFE" transform="scale(1.57407 1.57407)" d="M396.512 404.71C396.782 403.304 397.168 402.066 397.642 400.722L398.371 400.478L398.963 401.708C397.935 408.283 397.014 414.844 396.536 421.486C396.097 421.228 395.954 421.155 395.494 420.826C394.283 419.96 393.81 419.677 393.579 418.185C394.496 416.394 395.039 415.11 395.04 413.071C395.04 412.908 395.033 412.745 395.03 412.582L396.329 406.074L396.512 404.71Z"/>
	<path fill="#FEFEFE" fill-opacity="0.64705884" transform="scale(1.57407 1.57407)" d="M385.684 406.63C386.909 404.927 387.954 403.273 389.775 402.146L391.016 402.112C391.589 403.558 390.997 405.592 390.772 407.141C390.555 408.642 390.734 409.983 390.944 411.467L389.994 414.168C387.864 412.213 386.833 409.224 385.684 406.63Z"/>
	<path fill="#FEFEFE" fill-opacity="0.98039216" transform="scale(1.57407 1.57407)" d="M822.364 617.101C825.006 616.876 829.816 615.746 832.134 616.522L832.735 617.441C831.57 617.878 830.209 618.243 829.115 618.813C825.452 619.337 822.557 619.927 819.031 618.424L822.364 617.101Z"/>
	<path fill="#ACC2CC" fill-opacity="0.98823529" transform="scale(1.57407 1.57407)" d="M836.263 532.153C837.452 530.378 839.005 527.815 840.821 526.705C841.718 526.157 841.306 526.3 842.484 526.615L842.827 528.238L840.497 534.248C839.152 533.413 837.703 532.803 836.263 532.153Z"/>
	<path fill="#FEFEFE" fill-opacity="0.46666667" transform="scale(1.57407 1.57407)" d="M391.184 411.323C391.317 410.952 391.442 410.578 391.585 410.21C391.747 409.792 391.997 409.281 392.101 408.847C392.445 407.413 392.328 406.832 393.358 405.674C394.729 405.459 395.014 405.579 396.329 406.074L395.03 412.582L391.184 411.323Z"/>
	<path fill="#DAFEFF" fill-opacity="0.85882354" transform="scale(1.57407 1.57407)" d="M709.771 493.004C709.974 492.275 710.182 491.576 710.44 490.863C712.126 489.508 714.211 489.792 716.271 489.774C717.566 489.952 718.68 490.084 719.865 490.685C718.206 490.933 716.012 490.922 714.741 491.99L714.934 492.629C713.186 492.862 711.536 493.033 709.771 493.004Z"/>
	<defs>
		<linearGradient id="gradient_19" gradientUnits="userSpaceOnUse" x1="823.45361" y1="447.00198" x2="846.02747" y2="466.03397">
			<stop offset="0" stop-color="#51596E"/>
			<stop offset="1" stop-color="#7E868E"/>
		</linearGradient>
	</defs>
	<path fill="url(#gradient_19)" transform="scale(1.57407 1.57407)" d="M820.19 449.003C830.802 447.638 841.814 448.191 851.14 453.963C849.912 457.494 849.867 460.968 850.002 464.668C838.201 459.059 828.169 458.479 815.296 458.289C816.243 457.566 817.221 456.836 818.042 455.969C820.062 453.837 820.197 451.836 820.19 449.003Z"/>
	<defs>
		<linearGradient id="gradient_20" gradientUnits="userSpaceOnUse" x1="870.5072" y1="471.97607" x2="848.36719" y2="462.8952">
			<stop offset="0" stop-color="#5A5A66"/>
			<stop offset="1" stop-color="#696F7E"/>
		</linearGradient>
	</defs>
	<path fill="url(#gradient_20)" transform="scale(1.57407 1.57407)" d="M851.14 453.963C861.727 460.464 874.128 470.831 878.394 482.953C875.342 481.824 871.711 474.667 869.64 471.87C868.87 475.715 868.281 478.772 869.452 482.646L868.965 483.147L865.809 479.178C861.908 472.918 856.196 468.477 850.002 464.668C849.867 460.968 849.912 457.494 851.14 453.963Z"/>
	<path fill="#FEFEFE" fill-opacity="0.98823529" transform="scale(1.57407 1.57407)" d="M815.296 458.289C828.169 458.479 838.201 459.059 850.002 464.668C856.196 468.477 861.908 472.918 865.809 479.178Q861.612 478.386 857.383 477.783C850.296 471.377 843.41 468.314 834.303 465.617C835.342 465.089 835.937 465.038 836.508 463.989C836.157 463.511 836.146 463.427 835.575 463.043C833.729 461.805 826.135 460.669 823.923 461.28C822.462 461.683 821.092 461.706 819.587 461.769C816.856 460.582 812.887 460.409 809.901 459.943C811.707 458.74 813.177 458.49 815.296 458.289Z"/>
</svg>
